<?xml version="1.0" standalone="no"?>
<!DOCTYPE svg PUBLIC "-//W3C//DTD SVG 1.1//EN" "http://www.w3.org/Graphics/SVG/1.1/DTD/svg11.dtd" >
<svg xmlns="http://www.w3.org/2000/svg">
<metadata></metadata>
<defs>
<font id="f37_bellaregular" horiz-adv-x="1120" >
<font-face units-per-em="2048" ascent="1638" descent="-410" />
<missing-glyph horiz-adv-x="307" />
<glyph unicode="fi" horiz-adv-x="1603" d="M1083 1407q0 74 49.5 124t122.5 50q74 0 124.5 -50.5t50.5 -123.5t-50.5 -122.5t-124.5 -49.5q-73 0 -122.5 49.5t-49.5 122.5zM647 1518q116 0 189.5 -37t101.5 -123q10 -36 10 -62q0 -78 -46 -133t-128 -55q-72 0 -123 51t-51 123t51 123t123 51q57 0 104.5 -36.5 t62.5 -92.5q-12 80 -70.5 127t-137.5 47q-90 0 -143 -37q-68 -48 -68 -155v-285h164v-4h-164v-1016h164v-4h-655v4h164v1016h-164v4h164v133q0 149 131.5 255t320.5 106zM928 0v4h164v1016h-164v4h491v-1020h164v-4h-655z" />
<glyph unicode="fl" horiz-adv-x="1654" d="M647 1518q116 0 189.5 -37t101.5 -123q10 -36 10 -62q0 -78 -46 -133t-128 -55q-72 0 -123 51t-51 123t51 123t123 51q57 0 104.5 -36.5t62.5 -92.5q-12 80 -70.5 127t-137.5 47q-90 0 -143 -37q-68 -48 -68 -155v-285h164v-4h-164v-1016h164v-4h-655v4h164v1016h-164v4 h164v133q0 149 131.5 255t320.5 106zM979 0v4h164v1483h-164v4h491v-1487h164v-4h-655z" />
<glyph unicode="&#xd;" horiz-adv-x="614" />
<glyph unicode=" "  horiz-adv-x="307" />
<glyph unicode="&#x09;" horiz-adv-x="307" />
<glyph unicode="&#xa0;" horiz-adv-x="307" />
<glyph unicode="!" horiz-adv-x="448" d="M223 479q0 112 -16 208.5t-39.5 164.5t-46.5 129.5t-39 131t-16 140.5q0 104 41.5 157.5t117.5 53.5q75 0 116.5 -53.5t41.5 -157.5q0 -71 -16 -140.5t-39 -131t-46 -129.5t-39 -164.5t-16 -208.5h-4zM51 156q0 71 51 121.5t123 50.5q71 0 121.5 -51t50.5 -121 q0 -72 -50.5 -123t-121.5 -51q-72 0 -123 51t-51 123z" />
<glyph unicode="&#x22;" horiz-adv-x="745" d="M191 723q0 76 -22 166t-48 158t-48 144.5t-22 129.5q0 59 40.5 101t101.5 42t101 -42t40 -101q0 -65 -34.5 -169t-69 -219.5t-34.5 -209.5h-5zM553 723q0 76 -22 166t-48 158t-48 144.5t-22 129.5q0 59 40 101t101 42t101 -42t40 -101q0 -65 -34.5 -169t-69 -219.5 t-34.5 -209.5h-4z" />
<glyph unicode="#" horiz-adv-x="1210" d="M222 874h251l172 447h5l-172 -447h384l172 447h5l-172 -447h255v-4h-256l-136 -352h255v-4h-256l-177 -460h-5l177 460h-384l-177 -460h-5l177 460h-249v4h250l136 352h-250v4zM341 518h384l136 352h-384z" />
<glyph unicode="$" horiz-adv-x="1142" d="M492 -24q-144 18 -248 97.5t-131 168.5q-11 40 -11 61q0 79 46 134t128 55q72 0 123.5 -51.5t51.5 -123.5t-51.5 -123t-123.5 -51q-59 0 -105 36.5t-61 92.5q7 -57 54.5 -117.5t135 -110t192.5 -63.5v631q-58 24 -97.5 43t-89 47.5t-82 59.5t-62 71t-43.5 91t-14 110 q0 171 102 286t286 137v171h5v-170q38 4 74 4l57 -3v169h5v-169q148 -14 253 -86t132 -161q10 -32 10 -61q0 -78 -46 -133t-128 -55q-72 0 -123 51t-51 123t51 123t123 51q59 0 105.5 -36.5t61.5 -92.5q-12 92 -118 174t-270 99v-518l29 -12q46 -19 71.5 -30.5t69 -32.5 t69.5 -37.5t62.5 -42.5t58 -50t46 -58t38 -70t22.5 -81t9 -95q0 -169 -137.5 -300t-337.5 -153v-143h-5v142q-32 -3 -63 -3l-68 4v-143h-5v144zM497 1001q55 -30 131 -61v515q-26 3 -57 3q-19 0 -37.5 -2t-27.5 -4l-9 -2v-449zM332 1233q0 -77 41.5 -130.5t118.5 -97.5v443 q-59 -15 -97.5 -55.5t-50.5 -80t-12 -79.5zM565 -25l63 3v576q-74 32 -131 56v-630q30 -5 68 -5zM905 238q0 60 -20.5 108.5t-60.5 86t-84 64.5t-107 55v-572q65 7 115 29t79 49t47.5 61.5t24.5 63t6 55.5z" />
<glyph unicode="%" horiz-adv-x="1722" d="M743 1026q0 -115 -53 -217.5t-132.5 -160.5t-160.5 -58t-160.5 58t-132.5 160.5t-53 217.5t53 217.5t132.5 160.5t160.5 58t160.5 -58t132.5 -160.5t53 -217.5zM541 1026q0 168 -15 262t-45 132t-84 38t-84.5 -38t-45.5 -132t-15 -262q0 -169 15 -263t45.5 -131.5 t84.5 -37.5t84 37.5t45 131.5t15 263zM530 0l658 1434h6l-659 -1434h-5zM1671 408q0 -87 -31.5 -169t-81 -140t-111.5 -93t-122 -35t-122 35t-111.5 93t-81 140t-31.5 169q0 115 53 217.5t132.5 160.5t160.5 58t160.5 -58t132.5 -160.5t53 -217.5zM1468 408 q0 169 -14.5 262.5t-44.5 131.5t-84 38t-84.5 -38t-45.5 -132t-15 -262q0 -169 15 -263t45.5 -132t84.5 -38t84 38t44.5 132t14.5 263z" />
<glyph unicode="&#x26;" horiz-adv-x="1816" d="M1671 197q0 -108 -33.5 -194.5t-86 -140t-122.5 -89.5t-137.5 -50t-136.5 -14q-55 0 -115.5 15t-108 37t-87 44t-60.5 37l-22 15l4 4l16.5 -11t43.5 -25t66.5 -31.5t80.5 -24.5t90 -11q145 0 145 158q0 72 -38.5 149t-116.5 187l-13 16q-150 -299 -487 -299 q-208 0 -342.5 116t-134.5 300q0 80 28.5 150.5t74.5 124t114.5 102.5t137.5 83.5t154 67.5q-48 71 -70.5 122t-22.5 112q0 135 101.5 226t267.5 91q51 0 96 -9.5t87.5 -31.5t67.5 -64t25 -101q0 -44 -21.5 -83.5t-58.5 -70t-76.5 -53.5t-85.5 -42q41 -28 94 -57.5 t125 -67.5t110 -59q16 33 38 64t60.5 67.5t97.5 59t130 22.5q78 0 133.5 -48.5t55.5 -131.5q0 -72 -51 -123t-123 -51t-123 51t-51 123q0 66 39 114t96 62q-197 -15 -298 -211q77 -43 134 -82t118.5 -96.5t100.5 -119t64.5 -146.5t25.5 -182zM719 1284q0 -84 44.5 -149 t128.5 -124q51 26 72 78t21 166q0 39 -1.5 64t-9 54.5t-21 46.5t-38.5 28.5t-61 11.5q-60 0 -97.5 -47t-37.5 -129zM745 74q34 0 56.5 2.5t53.5 13.5t57 31t59 58t67 93l-451 638q-115 -58 -151.5 -130t-36.5 -202q0 -82 27.5 -171t72.5 -163t111 -122t135 -48z" />
<glyph unicode="'" horiz-adv-x="385" d="M191 723q0 76 -22 166t-48 158t-48 144.5t-22 129.5q0 59 40.5 101t101.5 42t101 -42t40 -101q0 -65 -34.5 -169t-69 -219.5t-34.5 -209.5h-5z" />
<glyph unicode="(" horiz-adv-x="677" d="M76 705q0 201 62 387t164.5 320t241.5 214t287 80v-4q-218 0 -308.5 -151.5t-90.5 -458.5v-775q0 -307 90.5 -458.5t308.5 -151.5v-4q-148 0 -287 80t-241.5 214.5t-164.5 320.5t-62 387z" />
<glyph unicode=")" horiz-adv-x="677" d="M602 705q0 -201 -62 -387t-165 -320.5t-242 -214.5t-287 -80v4q112 0 190 40t124 120t66 189.5t20 260.5v775q0 151 -20 260.5t-66 189.5t-124 120t-190 40v4q148 0 287 -80t242 -214t165 -320t62 -387z" />
<glyph unicode="*" horiz-adv-x="757" d="M374 1069v6q-4 82 -35 178t-31 129q0 39 21 60.5t48 21.5t48.5 -21.5t21.5 -60.5q0 -35 -31 -130.5t-37 -176.5v-7l8 5q45 31 88.5 75t69 74.5t56.5 52.5t62 22q30 0 49 -19t19 -45q0 -38 -30.5 -59.5t-73 -30t-112.5 -28t-125 -46.5l-8 -5l6 -3q55 -26 126 -44.5 t113 -27t72.5 -30.5t30.5 -60q0 -27 -18 -46t-47 -19q-31 0 -62.5 22.5t-57 53t-69.5 74t-90 73.5l-7 4v-6q6 -79 37 -174t31 -131q0 -39 -21.5 -60.5t-48.5 -21.5t-48 21.5t-21 60.5q0 35 31 130t35 175v4l-2 -1q-48 -31 -92.5 -74t-69.5 -73.5t-56.5 -53t-62.5 -22.5 q-29 0 -47.5 18.5t-18.5 45.5q0 38 30 60t72 30t114 27.5t129 46.5l2 1l-4 3q-57 29 -127.5 48.5t-113 27.5t-72.5 29.5t-30 59.5q0 27 18.5 46t48.5 19t61 -22t56.5 -52.5t70 -75t91.5 -76.5z" />
<glyph unicode="+" horiz-adv-x="989" d="M86 600h406v406h5v-406h405v-4h-405v-408h-5v408h-406v4z" />
<glyph unicode="," horiz-adv-x="450" d="M152 -137q119 21 175.5 81.5t65.5 166.5q-12 -55 -60 -92t-108 -37q-72 0 -123 51t-51 123t51 123t123 51q82 0 128 -55t46 -134q0 -243 -247 -282v4z" />
<glyph unicode="-" horiz-adv-x="704" d="M86 600h530v-4h-530v4z" />
<glyph unicode="." horiz-adv-x="397" d="M25 156q0 71 51 121.5t123 50.5q71 0 121.5 -51t50.5 -121q0 -72 -50.5 -123t-121.5 -51q-72 0 -123 51t-51 123z" />
<glyph unicode="/" horiz-adv-x="755" d="M700 1434h6l-650 -1688h-5z" />
<glyph unicode="0" horiz-adv-x="1368" d="M1317 717q0 -148 -57.5 -288t-147.5 -239t-204 -159t-224 -60t-224 60t-204 159t-147.5 239t-57.5 288t57.5 287.5t147.5 238.5t204 159t224 60t224 -60t204 -159t147.5 -238.5t57.5 -287.5zM958 717q0 290 -28 450.5t-85.5 225.5t-160.5 65t-160.5 -65t-85.5 -225.5 t-28 -450.5t28 -450.5t85.5 -226t160.5 -65.5t160.5 65.5t85.5 226t28 450.5z" />
<glyph unicode="1" horiz-adv-x="735" d="M35 0v4h164v1167h-201v5q172 27 312.5 104t219.5 184h5v-1460h163v-4h-663z" />
<glyph unicode="2" horiz-adv-x="1107" d="M526 1462q131 0 245.5 -56t181.5 -149.5t67 -199.5q0 -69 -14.5 -125t-47.5 -101t-70.5 -78.5t-98.5 -66t-114.5 -55t-135.5 -53.5q-35 -13 -85.5 -28.5t-85.5 -25.5t-78.5 -27.5t-73.5 -37t-62 -52t-52 -73.5t-35 -101t-20 -135q82 281 318 281q71 0 137 -24.5 t109 -53.5t102.5 -53.5t117.5 -24.5q41 0 76.5 10t67 32t49.5 63t18 96v8h5v-24q0 -115 -38 -213t-114.5 -161t-177.5 -63q-77 0 -140 21.5t-104 52t-78.5 60.5t-82.5 50.5t-97 18.5q-77 -2 -123.5 -50t-46.5 -124h-4v31q0 72 8 131.5t20 103t36.5 84t45 67t59 59t66 52 t77.5 55t83 60.5q78 59 127.5 115.5t72.5 115.5t30.5 109t7.5 119q0 338 -236 338q-140 0 -250 -81t-122 -212q15 56 61.5 92.5t105.5 36.5q72 0 123.5 -51t51.5 -123t-51.5 -123t-123.5 -51q-82 0 -128 55t-46 133q0 151 128 248.5t339 97.5z" />
<glyph unicode="3" horiz-adv-x="1118" d="M494 -29q-128 0 -227.5 29.5t-162.5 95.5t-63 162q0 78 46 133t128 55q72 0 123 -51t51 -123t-51 -123t-123 -51q-59 0 -106 36.5t-62 92.5q9 -66 48 -115t99.5 -77t130 -41.5t148.5 -13.5q121 0 177.5 98t56.5 328q0 189 -56.5 274.5t-179.5 85.5h-143v4h143 q140 0 195 79t55 281q0 51 -4.5 92t-19.5 85t-39 73.5t-66.5 48.5t-99.5 19q-88 0 -169.5 -37t-137 -107.5t-62.5 -158.5q15 56 62 92.5t106 36.5q72 0 123 -51t51 -123t-51 -123t-123 -51q-82 0 -128 55t-46 133q0 150 121 249t305 99q85 0 164 -20.5t147.5 -61t110 -111 t41.5 -161.5q0 -132 -101 -230.5t-237 -109.5q79 -6 148 -33.5t122 -73.5t84 -114t31 -150q0 -104 -46.5 -187t-125.5 -134t-178 -78t-209 -27z" />
<glyph unicode="4" horiz-adv-x="1142" d="M1098 549l-64 -201h-116v-344h163v-4h-663v4h164v344h-582l918 1157v-1009h59q38 0 67.5 14t39.5 28l11 14zM582 1074l-459 -578h459v578z" />
<glyph unicode="5" horiz-adv-x="1126" d="M463 -19q57 0 102.5 15.5t76 39.5t52.5 63t33.5 76t18.5 90t8.5 93.5t1.5 96.5q0 123 -32.5 215.5t-103.5 148t-174 55.5q-104 0 -183.5 -53.5t-110.5 -144.5h-4q59 369 59 743l13 5q13 4 35.5 10t51 12.5t68.5 11t80 4.5q67 0 124.5 -13.5t92.5 -29.5t88.5 -29.5 t113.5 -13.5q63 0 104.5 20.5t43.5 53.5h4q0 -7 -1.5 -22.5t-8.5 -51.5t-19.5 -71t-38 -75t-59.5 -70t-89 -50t-122 -20q-60 0 -141 20t-133 20q-39 0 -71.5 -13t-56 -35.5t-42.5 -55t-31.5 -68t-22.5 -78t-17 -81.5t-14 -82q-2 -13 -3 -20q35 95 140 151.5t247 56.5 q234 0 383 -131t149 -336q0 -91 -31.5 -168.5t-85.5 -131.5t-125.5 -92.5t-151.5 -56.5t-163 -18q-95 0 -177.5 17.5t-148 51t-103.5 90t-38 128.5q0 78 46 133t128 55q72 0 123 -51t51 -123t-51 -123t-123 -51q-59 0 -106 36.5t-62 92.5q8 -65 51 -115t105 -77t125.5 -40.5 t124.5 -13.5z" />
<glyph unicode="6" horiz-adv-x="1241" d="M733 895q62 0 125.5 -19.5t123 -59t106 -93t74.5 -128.5t28 -159q0 -85 -31 -160.5t-83 -130t-119.5 -94.5t-141.5 -60t-147 -20q-135 0 -251.5 59.5t-196 160.5t-124.5 237.5t-45 288.5q0 100 26 202.5t81 200.5t132 174t189 122t242 46q96 0 178.5 -32t138.5 -102 t56 -165q0 -78 -46 -133t-128 -55q-72 0 -123.5 51t-51.5 123t51.5 123t123.5 51q59 0 105.5 -36.5t61.5 -92.5q-6 66 -41.5 118.5t-89 83t-113.5 46.5t-122 16q-115 0 -178.5 -63.5t-95 -222t-37.5 -455.5l-1 -50q39 113 122.5 170.5t201.5 57.5zM668 -25q92 0 150.5 104 t58.5 337q0 89 -13 165.5t-40.5 139t-74.5 98t-110 35.5q-91 0 -147.5 -58.5t-81.5 -141.5q1 -109 6 -194t16 -164.5t30 -136t47 -99.5t68 -64t91 -21z" />
<glyph unicode="7" horiz-adv-x="1007" d="M942 1116q-10 -19 -58 -106t-62 -116.5t-42 -92.5t-37.5 -108.5t-9.5 -90.5q0 -82 13.5 -173t13.5 -159q0 -54 -13 -105t-39 -95.5t-72.5 -71.5t-107.5 -27q-56 0 -101 24t-72.5 64t-42.5 89t-15 102q0 76 23 144t58.5 118t89 104.5t103.5 96t115 100t111 109.5 q97 108 143 199q64 125 64 235q-11 -38 -47.5 -89t-90 -101t-130.5 -84.5t-156 -34.5q-54 0 -144 13t-147 13q-75 0 -127.5 -19.5t-77 -52t-34 -63t-9.5 -64.5v-43h-6v615h6v-64q154 80 268 80q65 0 139 -23.5t130 -52t126 -52t127 -23.5q40 0 71 11t48 26t28 31.5t14 26.5 t3 13h6q7 -20 7 -55q0 -126 -66 -248z" />
<glyph unicode="8" horiz-adv-x="1181" d="M115 1034q0 81 32 156.5t92.5 136.5t156.5 98t214 37q105 0 199.5 -39t156.5 -115.5t62 -172.5q0 -97 -67.5 -172t-160.5 -110q70 -36 120 -70.5t97 -84t72 -114.5t25 -144q0 -96 -45 -184t-117.5 -150t-166 -98.5t-187.5 -36.5q-111 0 -211.5 33t-169.5 86.5t-110 122 t-41 137.5q0 124 80 208.5t196 120.5q-107 72 -167 156.5t-60 198.5zM889 1124q0 87 -28.5 160.5t-94.5 123.5t-160 50q-115 0 -177 -55.5t-62 -163.5q0 -43 12 -80.5t38.5 -68.5t53 -55t72.5 -50.5t78.5 -43t88 -43.5t86.5 -43q44 45 68.5 117.5t24.5 151.5zM252 381 q0 -57 13.5 -114t42 -110t68.5 -93.5t97.5 -64.5t124.5 -24q125 0 207 69.5t82 176.5q0 52 -25 99t-64 82t-97.5 72t-113 65t-124.5 67t-118 71q-55 -52 -74 -117t-19 -179z" />
<glyph unicode="9" horiz-adv-x="1220" d="M487 539q-77 0 -154 31.5t-140 88t-102.5 145t-39.5 193.5q0 106 44 195.5t116 147.5t161 90t181 32q108 0 205 -38t171.5 -107t128.5 -161.5t82.5 -205t28.5 -233.5q0 -100 -25.5 -203t-80.5 -200.5t-132 -173.5t-189 -122.5t-242 -46.5q-72 0 -140 17.5t-125.5 51 t-93 90.5t-35.5 128q0 78 46.5 133t128.5 55q72 0 123 -51t51 -123t-51 -123t-123 -51q-59 0 -106 36.5t-62 92.5q9 -84 72.5 -143t145 -84t169.5 -25q87 0 143.5 33t95.5 117.5t55.5 227.5t16.5 364v52q-39 -113 -122.5 -171.5t-201.5 -58.5zM553 1458q-188 0 -188 -440 q0 -438 217 -438q48 0 87.5 18t66.5 49t45 64.5t30 72.5q-1 132 -8 229.5t-24.5 185t-45.5 142t-73 86t-107 31.5z" />
<glyph unicode=":" horiz-adv-x="448" d="M51 870q0 71 51 121.5t123 50.5q71 0 121.5 -51t50.5 -121q0 -72 -50.5 -123t-121.5 -51q-72 0 -123 51t-51 123zM51 156q0 71 51 121.5t123 50.5q71 0 121.5 -51t50.5 -121q0 -72 -50.5 -123t-121.5 -51q-72 0 -123 51t-51 123z" />
<glyph unicode=";" horiz-adv-x="450" d="M51 870q0 71 51 121.5t123 50.5q71 0 121.5 -51t50.5 -121q0 -72 -50.5 -123t-121.5 -51q-72 0 -123 51t-51 123zM152 -137q119 21 175.5 81.5t65.5 166.5q-12 -55 -60 -92t-108 -37q-72 0 -123 51t-51 123t51 123t123 51q82 0 128 -55t46 -134q0 -243 -247 -282v4z" />
<glyph unicode="&#x3c;" horiz-adv-x="847" d="M86 600l674 307v-4l-670 -305l670 -305v-4l-674 307v4z" />
<glyph unicode="=" horiz-adv-x="946" d="M86 764h772v-4h-772v4zM86 436h772v-4h-772v4z" />
<glyph unicode="&#x3e;" horiz-adv-x="847" d="M760 596l-674 -307v4l670 305l-670 305v4l674 -307v-4z" />
<glyph unicode="?" horiz-adv-x="1071" d="M444 1452q-165 0 -282 -65.5t-135 -180.5q15 56 62 92.5t106 36.5q72 0 123 -51t51 -123t-51 -123t-123 -51q-82 0 -128.5 55.5t-46.5 133.5q0 88 63 154.5t164.5 100t225.5 33.5q121 0 217.5 -23.5t157 -60.5t100.5 -86t56 -97.5t16 -98.5q0 -75 -32 -133.5t-83 -94.5 t-113 -65t-123.5 -53t-112.5 -50t-83 -65t-32 -90q0 -45 26 -96q-58 89 -58 176q0 59 28.5 112.5t68.5 97.5t80.5 92.5t69 119t28.5 155.5q0 121 -62 184.5t-178 63.5zM317 156q0 71 51.5 121.5t123.5 50.5q70 0 121 -51t51 -121q0 -72 -50.5 -123t-121.5 -51 q-72 0 -123.5 51t-51.5 123z" />
<glyph unicode="@" horiz-adv-x="1982" d="M1315 121q-27 0 -56.5 3t-78 16.5t-84.5 36t-63 67.5t-27 106v10q-35 -56 -60 -89.5t-60.5 -67t-77.5 -49t-93 -15.5q-93 0 -152 75.5t-59 197.5q0 74 26.5 159.5t75 166t110 147t138 107t152.5 40.5q74 0 110.5 -42t36.5 -134l55 168h271l-181 -553q-45 -137 -45 -205 q0 -53 29 -77.5t96 -24.5q143 0 259 80t177.5 205t61.5 266q0 129 -28.5 238.5t-73.5 186t-111 139t-129 100t-139 65.5t-130.5 40.5t-115 20t-80.5 8t-37 0.5q-187 0 -358.5 -73.5t-295.5 -197.5t-198 -295t-74 -357q0 -187 74 -358.5t198 -295.5t295.5 -198t358.5 -74 q164 0 316 57t276 160l4 -4q-124 -103 -277 -160t-319 -57q-189 0 -361 74t-296.5 198.5t-198.5 296.5t-74 361q0 188 74 360t199 296.5t297 198t360 73.5q21 0 48 -1.5t86.5 -9.5t117 -22t130.5 -43t136 -68t125.5 -101.5t106 -139t71 -184.5t27.5 -234q0 -154 -75 -290.5 t-206 -220t-284 -83.5zM793 166q54 0 105.5 55.5t107.5 147.5q3 50 20 102l123 379q1 21 -1.5 44.5t-10.5 51t-26.5 45t-45.5 17.5q-60 0 -102 -68.5t-109 -261.5l-66 -186q-59 -171 -59 -252q0 -74 64 -74z" />
<glyph unicode="A" horiz-adv-x="1456" d="M719 0v4h188l-196 488h-359l-174 -488h189v-4h-353v4h159l524 1464l593 -1464h150v-4h-721zM354 496h355l-188 466z" />
<glyph unicode="B" horiz-adv-x="1353" d="M1303 379q0 -79 -27.5 -144t-89 -119.5t-172.5 -85t-264 -30.5h-715v4h180v1426h-180v4h614q115 0 210 -18t172.5 -57t121 -106.5t43.5 -158.5q0 -59 -19 -109t-47 -82.5t-67 -59t-73.5 -40.5t-71.5 -24t-55.5 -13t-31.5 -4q14 0 36.5 -2.5t70.5 -12t92.5 -24t96 -44 t89 -68t62.5 -99t25 -133.5zM893 1094q0 86 -20.5 150t-50 98.5t-70.5 55.5t-72.5 26.5t-65.5 5.5h-55v-664h82q44 0 78 7t68 28t56 56.5t36 95.5t14 141zM965 365q0 100 -15 171t-41 114.5t-68.5 69t-89 34t-110.5 8.5h-82v-758h125q42 0 77 6.5t74.5 29.5t66.5 60.5 t45 105.5t18 159z" />
<glyph unicode="C" horiz-adv-x="1171" d="M721 1464q169 0 281 -75t145 -177q10 -36 10 -61q0 -78 -46 -133t-128 -55q-72 0 -123 51t-51 123t51 123t123 51q59 0 105.5 -36.5t61.5 -92.5q-7 48 -38.5 95.5t-84 89t-132.5 67.5t-174 26q-63 0 -112.5 -29t-80.5 -70t-53.5 -111.5t-33 -125.5t-16.5 -142.5 t-6.5 -132.5t-0.5 -122v-10q0 -171 13.5 -300.5t37 -213t59.5 -136t77 -73.5t93 -21q175 0 303.5 125.5t165.5 350.5h4q-19 -131 -77.5 -237.5t-161.5 -174.5t-234 -68t-250 57.5t-206.5 156.5t-139 239t-51.5 297q0 109 29 216.5t87.5 202.5t137.5 168t187 115.5t229 42.5z " />
<glyph unicode="D" horiz-adv-x="1501" d="M1450 717q0 -132 -44 -248.5t-119.5 -201t-174.5 -145.5t-210 -91.5t-224 -30.5h-643v4h180v1426h-180v4h643q113 0 224 -30.5t210 -91.5t174.5 -145.5t119.5 -201t44 -248.5zM1110 717q0 102 -4.5 180t-16.5 155t-32.5 132.5t-53 104t-77.5 78.5t-107 46.5t-141 16.5 h-119v-1426h119q79 0 141 16.5t107 46.5t77.5 78.5t53 104t32.5 132.5t16.5 155t4.5 180z" />
<glyph unicode="E" horiz-adv-x="1265" d="M1188 0h-1153v4h180v1426h-180v4h1079v-519h-4q-1 11 -4.5 29.5t-18.5 72t-35.5 102t-59.5 108t-86.5 102t-120 72t-156.5 29.5h-70v-693h25q53 0 98.5 18.5t75 48.5t52.5 66t35.5 72t20.5 66t10 48l3 19h4v-680h-4q-1 7 -2.5 19t-10 47.5t-21 67t-36 70.5t-52.5 67.5 t-74.5 47.5t-98.5 19h-25v-729h70q82 0 153.5 19t123 51.5t94.5 74t71 87.5t50 92.5t33.5 88t18.5 74t9 51.5l2 19h4v-561z" />
<glyph unicode="F" horiz-adv-x="1153" d="M739 0h-704v4h180v1426h-180v4h1067v-519h-4q-1 11 -4 29.5t-17 72t-33 102t-56.5 108t-84 102t-118.5 72t-156 29.5h-70v-693h25q53 0 98.5 18.5t75 48.5t52.5 66t35.5 72t20.5 66t10 48l3 19h4v-680h-4q-1 7 -2.5 19t-10 47.5t-21 67t-36 70.5t-52.5 67.5t-74.5 47.5 t-98.5 19h-25v-729h180v-4z" />
<glyph unicode="G" horiz-adv-x="1425" d="M788 1460q-74 0 -133 -25.5t-97 -64t-65.5 -100t-41.5 -116.5t-22 -132.5t-9.5 -128t-1.5 -121.5v-55q0 -215 19 -361t58 -229.5t92.5 -118.5t129.5 -35q235 0 235 295v365h-180v4h705v-4h-181v-656h-4q-4 47 -44 89.5t-109 42.5q-44 0 -81 -14.5t-66.5 -35t-63.5 -41 t-88 -35t-123 -14.5q-141 0 -265 57.5t-212 156.5t-138.5 238.5t-50.5 297.5q0 111 27.5 216.5t86.5 202t143.5 168.5t208 115t271.5 43q208 0 353 -89q65 -40 109 -98t44 -126q0 -78 -46 -133t-128 -55q-72 0 -123 51t-51 123t51 123t123 51q59 0 105.5 -36.5t61.5 -92.5 q-8 51 -46.5 101t-101.5 89q-142 88 -351 88z" />
<glyph unicode="H" horiz-adv-x="1570" d="M829 0v4h181v719h-451v-719h180v-4h-704v4h180v1426h-180v4h704v-4h-180v-703h451v703h-181v4h705v-4h-180v-1426h180v-4h-705z" />
<glyph unicode="I" horiz-adv-x="776" d="M559 4h180v-4h-704v4h180v1426h-180v4h704v-4h-180v-1426z" />
<glyph unicode="J" horiz-adv-x="972" d="M317 -31q-123 0 -201 42q-55 29 -85.5 75t-30.5 100q0 84 48.5 136.5t125.5 52.5q72 0 123 -51t51 -123t-51 -123t-123 -51q-58 0 -104 36t-63 93q12 -79 88.5 -127.5t187.5 -48.5q79 0 121 56t42 161v1233h-178v4h701v-4h-178v-1022q0 -203 -127.5 -321t-346.5 -118z " />
<glyph unicode="K" horiz-adv-x="1538" d="M739 1430h-180v-1426h180v-4h-704v4h180v1426h-180v4h704v-4zM1409 4h180v-4h-770v4h170l-430 678l582 748h-183v4h371v-4h-182l-353 -455z" />
<glyph unicode="L" horiz-adv-x="1239" d="M1188 0h-1153v4h180v1426h-180v4h704v-4h-180v-1426h70q82 0 153.5 19t123 51.5t94.5 74t71 87.5t50 92.5t33.5 88t18.5 74t9 51.5l2 19h4v-561z" />
<glyph unicode="M" horiz-adv-x="1708" d="M1671 0h-704v4h180v1362l-420 -1386l-512 1331v-1307h180v-4h-366v4h180v1426h-184v4h522l345 -893l270 893h509v-4h-180v-1426h180v-4z" />
<glyph unicode="N" horiz-adv-x="1349" d="M1323 1427h-180v-1447l-933 1338v-1314h181v-4h-366v4h180v1426h-180v4h536l577 -827v820h-182v7h367v-7z" />
<glyph unicode="O" horiz-adv-x="1511" d="M1460 717q0 -152 -63 -293t-163 -239.5t-226.5 -157t-251.5 -58.5t-251.5 58.5t-227 157t-163.5 239.5t-63 293t63 293t163.5 239t227 156.5t251.5 58.5t251.5 -58.5t226.5 -156.5t163 -239t63 -293zM1094 717q0 288 -37 451.5t-108.5 227.5t-192.5 64t-192.5 -64 t-108.5 -227.5t-37 -451.5t37 -452t108.5 -228t192.5 -64t192.5 64t108.5 228t37 452z" />
<glyph unicode="P" horiz-adv-x="1316" d="M1266 958q0 -95 -26 -171t-71 -127t-107.5 -85.5t-133 -49.5t-150.5 -15q-56 0 -111 11t-81 21l-27 11v-549h180v-4h-704v4h180v1426h-180v4h614q300 0 458.5 -126.5t158.5 -349.5zM961 958q0 134 -25 228t-73 146.5t-108.5 75t-142.5 22.5h-53v-872q82 -34 174 -34 q44 0 80 16.5t59.5 41.5t40.5 63.5t26 74.5t14.5 83t6.5 80.5t1 74.5z" />
<glyph unicode="Q" horiz-adv-x="1511" d="M1460 717q0 -152 -63 -293t-163 -239.5t-226.5 -157t-251.5 -58.5q-119 0 -238.5 52t-218.5 144q-54 -80 -54 -169q0 -113 93 -194t217 -81q63 0 134 34t135 82t128.5 96t136 82t136.5 34q97 0 162 -66t65 -169q0 -35 -11.5 -64.5t-28 -46.5t-33.5 -28.5t-29 -16.5 l-11 -4l-2 4q26 9 43 34.5t17 53.5q0 41 -28.5 69.5t-74.5 28.5q-44 0 -97.5 -25.5t-108 -62t-115 -72.5t-140 -61.5t-161.5 -25.5q-181 0 -306.5 118.5t-125.5 280.5q0 89 55 172q-112 107 -178 249t-66 300q0 152 63 293t163.5 239t227 156.5t251.5 58.5t251.5 -58.5 t226.5 -156.5t163 -239t63 -293zM1094 717q0 288 -37 451.5t-108.5 227.5t-192.5 64t-192.5 -64t-108.5 -227.5t-37 -451.5t37 -452t108.5 -228t192.5 -64t192.5 64t108.5 228t37 452z" />
<glyph unicode="R" horiz-adv-x="1490" d="M1516 57q-27 -51 -66.5 -69.5t-110.5 -18.5q-81 0 -147.5 18.5t-122 59t-86.5 114t-31 175.5v133q0 276 -297 276h-96v-741h180v-4h-704v4h180v1426h-180v4h649q241 0 388 -99t147 -256q0 -132 -107.5 -228t-271.5 -103q66 -3 129 -17.5t125 -45.5t108 -74.5t74.5 -109.5 t28.5 -147v-182q0 -107 27 -145.5t77 -38.5q66 0 102 71zM899 1079q0 186 -61.5 268.5t-202.5 82.5h-76v-680h96q54 0 89.5 6.5t67.5 26t49.5 56t27.5 95.5t10 145z" />
<glyph unicode="S" horiz-adv-x="1128" d="M524 -27q82 0 145 19.5t99 48t58.5 66.5t30 69.5t7.5 61.5q0 67 -27.5 121.5t-74 92t-106.5 69t-126.5 59t-132.5 55.5t-126 64.5t-106.5 80.5t-74 109t-27.5 145q0 191 124 310.5t343 119.5q171 0 293 -76.5t154 -175.5q10 -36 10 -61q0 -78 -46 -133t-128 -55 q-72 0 -123 51t-51 123t51 123t123 51q59 0 105.5 -36.5t61.5 -92.5q-6 47 -41 95.5t-91 89.5t-140 67t-178 26q-56 0 -99.5 -16t-69 -40t-42 -56t-22.5 -60t-6 -55q0 -59 26.5 -107t71.5 -81t103 -62t122.5 -55.5t129 -56t122.5 -69.5t103 -89.5t71.5 -122.5t26.5 -162 q0 -120 -72.5 -226t-198.5 -169.5t-272 -63.5q-114 0 -214 44t-158.5 104.5t-79.5 124.5q-11 40 -11 61q0 78 46.5 133.5t128.5 55.5q72 0 123 -51.5t51 -123.5t-51 -123t-123 -51q-59 0 -105.5 36.5t-61.5 92.5q6 -47 42.5 -98.5t93.5 -96.5t142 -74.5t177 -29.5z" />
<glyph unicode="T" horiz-adv-x="1232" d="M1182 1434v-570h-5q0 70 -12.5 142t-42 146t-73 132.5t-111 98.5t-150.5 47v-1426h181v-4h-705v4h180v1426q-83 -7 -150.5 -47t-110.5 -98.5t-72.5 -132.5t-42 -146t-12.5 -142h-5v570h1131z" />
<glyph unicode="U" horiz-adv-x="1333" d="M1327 1430h-180v-1047q0 -48 -4.5 -90t-16 -85t-30 -77.5t-48.5 -65.5t-69.5 -51.5t-94 -32.5t-120.5 -12q-95 0 -175 15t-152 50t-122.5 89.5t-80 137.5t-29.5 190v979h-180v4h704v-4h-180v-1045q0 -100 12 -167.5t43.5 -118.5t88 -75t141.5 -24q60 0 108 15.5t79.5 39 t55 58.5t35.5 68t19.5 73.5t9 68.5t1.5 60v1047h-181v4h366v-4z" />
<glyph unicode="V" horiz-adv-x="1415" d="M1399 1430h-162l-475 -1465l-567 1465h-181v4h731v-4h-172l361 -916l297 916h-195v4h363v-4z" />
<glyph unicode="W" horiz-adv-x="2011" d="M1403 1430h-174l334 -891l264 891h-195v4h363v-4h-162l-434 -1465l-378 1011l-300 -1011l-547 1465h-160v4h662v-4h-125l335 -891l132 446l-166 445h-115v4h666v-4z" />
<glyph unicode="X" horiz-adv-x="1572" d="M68 0v4h217l354 609l-436 817h-178v4h778v-4h-199l282 -526l306 526h-238v4h461v-4h-217l-309 -532l479 -894h178v-4h-780v4h201l-325 604l-351 -604h237v-4h-460z" />
<glyph unicode="Y" horiz-adv-x="1415" d="M1399 1430h-160l-319 -746v-680h180v-4h-705v4h180v623l-385 803h-176v4h758v-4h-205l351 -736l315 736h-209v4h375v-4z" />
<glyph unicode="Z" horiz-adv-x="1282" d="M1204 0h-1128l706 1430h-104q-129 0 -229.5 -39.5t-158.5 -97.5t-97 -136.5t-53.5 -143.5t-19.5 -132h-5v553h1046l-706 -1430h129q121 0 222 30.5t186 96t139 180t68 269.5h5v-580z" />
<glyph unicode="[" horiz-adv-x="714" d="M514 -264h164v-4h-500v1945h500v-4h-164v-1937z" />
<glyph unicode="\" horiz-adv-x="755" d="M700 -254l-649 1688h5l650 -1688h-6z" />
<glyph unicode="]" horiz-adv-x="714" d="M200 1673h-164v4h500v-1945h-500v4h164v1937z" />
<glyph unicode="^" horiz-adv-x="880" d="M822 1080l-382 441l-381 -441h-8l389 446l389 -446h-7z" />
<glyph unicode="_" horiz-adv-x="778" d="M-6 -80h788v-4h-788v4z" />
<glyph unicode="`" horiz-adv-x="493" d="M58 1522l385 -279h-7l-385 279h7z" />
<glyph unicode="a" d="M454 1039q-73 0 -142.5 -27.5t-121.5 -80t-67 -118.5q15 55 63 92t105 37q72 0 123 -51t51 -123t-51 -123t-123 -51q-82 0 -128 55t-46 133q0 36 10 62q20 52 61 93.5t91 65t100.5 35.5t96.5 12q224 0 350 -99t126 -263v-541q0 -120 78 -120q33 0 49 16q28 26 37 82h4 q-28 -152 -184 -152q-125 0 -211.5 67.5t-95.5 158.5q-3 -36 -18.5 -71.5t-46.5 -72t-88.5 -59.5t-133.5 -23q-126 0 -201 73.5t-75 186.5q0 116 76.5 193.5t187.5 99.5q52 10 99 13t75 11q57 14 121 104v211q0 91 -42 132.5t-129 41.5zM625 647q-30 -42 -56.5 -65.5 t-62.5 -44.5q-113 -63 -113 -189v-182q0 -82 14 -119t56 -37q64 0 113 66.5t49 128.5v442z" />
<glyph unicode="b" horiz-adv-x="1198" d="M1153 512q0 -72 -14.5 -144t-49 -144t-84.5 -127t-128 -89.5t-172 -34.5q-56 0 -111.5 18.5t-92 41t-84.5 41t-91 18.5q-68 0 -101 -41t-37 -90h-4v1526h-164v4h492v-655q61 215 246 215q73 0 144.5 -41t127 -111t89.5 -172t34 -215zM805 625q0 222 -28.5 308.5 t-100.5 86.5q-53 0 -97.5 -56.5t-66.5 -146.5v-602q0 -120 37 -175.5t113 -55.5q73 0 108 98t35 317v226z" />
<glyph unicode="c" horiz-adv-x="929" d="M602 1041q-45 0 -79.5 -18t-57 -55t-37 -81t-21.5 -109.5t-9.5 -126t-2.5 -143.5q0 -47 1 -81t5.5 -90.5t13.5 -97t26.5 -87.5t41.5 -76.5t62 -49.5t86 -20q137 0 212 103.5t83 289.5h4q-4 -96 -26.5 -171t-66 -133.5t-116 -90t-170.5 -31.5t-190.5 41.5t-162 112.5 t-111.5 172t-42 213q0 106 38.5 204t106.5 172t166 118.5t211 44.5q252 0 320 -207q10 -32 10 -62q0 -78 -46 -133t-128 -55q-72 0 -123 51t-51 123t51 123t123 51q57 0 104.5 -36.5t62.5 -92.5q-9 41 -29.5 79.5t-54 73t-86.5 55t-118 20.5z" />
<glyph unicode="d" horiz-adv-x="1198" d="M686 1487h-164v4h492v-1487h164v-4h-492v188q-61 -215 -246 -215q-73 0 -144.5 41t-127 111t-89.5 172t-34 215t34 215t89.5 172t127 111t144.5 41q185 0 246 -215v651zM686 817q-22 90 -66.5 146.5t-97.5 56.5q-72 0 -100.5 -86.5t-28.5 -308.5v-226q0 -222 28.5 -308.5 t100.5 -86.5q53 0 97.5 56.5t66.5 146.5v610z" />
<glyph unicode="e" horiz-adv-x="1036" d="M395 514v-57q0 -70 1.5 -115t6 -97.5t13.5 -85t25.5 -65t40 -50t57.5 -28.5t79 -11q141 0 235 93t132 262h4q-87 -387 -450 -387q-128 0 -242 74t-183 199t-69 266t69 266t183 199t242 74q98 0 185.5 -43t150 -116t99 -171.5t36.5 -206.5h-615zM539 1047q-33 0 -57 -12 t-39.5 -38t-25.5 -56.5t-14.5 -80t-6 -94.5t-1.5 -113v-135h267q0 120 -1.5 199t-7 141.5t-13.5 96.5t-23 56t-32.5 29t-45.5 7z" />
<glyph unicode="f" horiz-adv-x="948" d="M647 1518q116 0 189.5 -37t101.5 -123q10 -36 10 -62q0 -78 -46 -133t-128 -55q-72 0 -123 51t-51 123t51 123t123 51q57 0 104.5 -36.5t62.5 -92.5q-12 80 -70.5 127t-137.5 47q-90 0 -143 -37q-68 -48 -68 -155v-285h164v-4h-164v-1016h164v-4h-655v4h164v1016h-164v4 h164v133q0 149 131.5 255t320.5 106z" />
<glyph unicode="g" horiz-adv-x="1150" d="M561 389q-154 0 -268 80q-86 -26 -86 -84q0 -35 41 -53q60 -28 317 -43q145 -9 246 -40t158.5 -83.5t82.5 -117.5t25 -150q0 -172 -144 -286t-362 -114q-244 0 -380 84t-136 199q0 99 67.5 155.5t176.5 69.5q-205 63 -205 242q0 159 195 223q-129 96 -129 250 q0 140 113 235t288 95q117 0 209 -45.5t143 -122.5q15 3 29.5 6.5t45.5 13.5t55.5 26.5t49.5 40t39.5 59.5t14.5 79q0 161 -148 213q44 -24 71.5 -66.5t27.5 -93.5q0 -72 -52.5 -124t-125.5 -52t-125 52t-52 124q0 74 52 126t125 52q21 0 41 -4q23 -4 44 -11t49.5 -24 t48.5 -40t34 -62.5t14 -89.5q0 -51 -21.5 -92t-48.5 -64t-65 -40.5t-59 -23t-42 -9.5q48 -73 48 -158q0 -140 -113.5 -236t-288.5 -96zM561 393q33 0 57 12.5t46 45.5t33.5 101t11.5 169q0 82 -8 141.5t-21 94.5t-33.5 56t-40 27.5t-45.5 6.5t-45.5 -6.5t-39.5 -27.5 t-33 -56t-21 -94.5t-8 -141.5t8 -142t21 -95t33 -56t39.5 -28t45.5 -7zM604 -48q-19 3 -81.5 11.5t-111.5 17.5t-92 21q-45 -27 -75.5 -79.5t-30.5 -131.5q0 -113 99.5 -201t254.5 -88q153 0 252 64t99 168q0 93 -68 140.5t-246 77.5z" />
<glyph unicode="h" horiz-adv-x="1284" d="M1264 0h-586v4h94v807q0 117 -18 163t-68 46q-53 0 -97.5 -56.5t-66.5 -146.5v-813h94v-4h-585v4h164v1483h-164v4h491v-655q61 215 246 215q166 0 249 -105.5t83 -271.5v-670h164v-4z" />
<glyph unicode="i" horiz-adv-x="706" d="M186 1407q0 74 49.5 124t122.5 50q74 0 124 -50.5t50 -123.5t-50 -122.5t-124 -49.5t-123 49.5t-49 122.5zM31 0v4h164v1016h-164v4h491v-1020h164v-4h-655z" />
<glyph unicode="j" horiz-adv-x="634" d="M162 1407q0 74 49.5 124t122.5 50q74 0 124 -50.5t50 -123.5t-50 -122.5t-124 -49.5t-123 49.5t-49 122.5zM170 1020h-164v4h492v-1165q0 -149 -132 -255t-321 -106q-116 0 -189.5 37t-101.5 123q-10 36 -10 61q0 79 46 134t128 55q72 0 123 -51t51 -123t-51 -123 t-123 -51q-57 0 -104.5 36.5t-62.5 92.5q12 -80 70.5 -127t137.5 -47q91 0 143 36q68 48 68 156v1313z" />
<glyph unicode="k" horiz-adv-x="1296" d="M645 0h-614v4h164v1483h-164v4h491v-1042l461 571h-209v4h391v-4h-176l-248 -307l496 -709h111v-4h-635v4h112l-303 438v-438h123v-4z" />
<glyph unicode="l" horiz-adv-x="706" d="M31 0v4h164v1483h-164v4h491v-1487h164v-4h-655z" />
<glyph unicode="m" horiz-adv-x="1804" d="M1153 0h-500v4h90v878q0 29 -2.5 50t-9.5 43t-23 33.5t-40 11.5q-54 0 -102 -63.5t-64 -141.5v-811h82v-4h-553v4h143v1016h-143v4h471v-188q31 109 95.5 162t152.5 53q224 0 297 -215q29 107 100.5 161t161.5 54q85 0 149.5 -29.5t103.5 -82t58.5 -119t19.5 -146.5v-670 h144v-4h-561v4h90v807q0 120 -16.5 164.5t-69.5 44.5q-59 0 -109 -59t-69 -134q22 -74 22 -153v-670h82v-4z" />
<glyph unicode="n" horiz-adv-x="1284" d="M1264 0h-586v4h94v807q0 117 -18 163t-68 46q-53 0 -97.5 -56.5t-66.5 -146.5v-813h94v-4h-585v4h164v1016h-164v4h491v-188q61 215 246 215q166 0 249 -105.5t83 -271.5v-670h164v-4z" />
<glyph unicode="o" d="M1073 512q0 -140 -74 -265.5t-193 -199.5t-247 -74t-247 74t-193 199.5t-74 265.5t74 265.5t193 199.5t247 74t247 -74t193 -199.5t74 -265.5zM725 512q0 52 -0.5 87t-1.5 81.5t-3.5 77.5t-6.5 69t-11 63.5t-15.5 53t-21 44.5t-28 31.5t-35 21t-43.5 6.5q-29 0 -52.5 -10 t-40.5 -33t-29 -47.5t-20 -67t-12.5 -77.5t-6.5 -93t-2.5 -98.5t-0.5 -108.5t0.5 -108.5t2.5 -98.5t6.5 -93t12.5 -77.5t20 -67t29 -47.5t40.5 -33t52.5 -10q24 0 43.5 6.5t35 21t28 31.5t21 44.5t15.5 53t11 63.5t6.5 69t3.5 77.5t1.5 81.5t0.5 87z" />
<glyph unicode="p" horiz-adv-x="1208" d="M522 -471h164v-4h-655v4h164v1491h-164v4h491v-188q61 215 246 215q73 0 144.5 -41t127 -111t89.5 -172t34 -215t-34 -215t-89.5 -172t-127 -111t-144.5 -41q-185 0 -246 215v-659zM522 207q22 -90 66.5 -146.5t97.5 -56.5q72 0 100.5 86.5t28.5 308.5v226 q0 222 -28.5 308.5t-100.5 86.5q-53 0 -97.5 -56.5t-66.5 -146.5v-610z" />
<glyph unicode="q" horiz-adv-x="1208" d="M686 188q-61 -215 -246 -215q-73 0 -144.5 41t-127 111t-89.5 172t-34 215t34 215t89.5 172t127 111t144.5 41q185 0 246 -215v188h492v-4h-164v-1491h164v-4h-656v4h164v659zM686 817q-22 90 -66.5 146.5t-97.5 56.5q-72 0 -100.5 -86.5t-28.5 -308.5v-226 q0 -222 28.5 -308.5t100.5 -86.5q53 0 97.5 56.5t66.5 146.5v610z" />
<glyph unicode="r" horiz-adv-x="972" d="M31 0v4h164v1016h-164v4h491v-86q76 109 199 109q67 0 130 -39.5t87 -122.5q10 -36 10 -62q0 -78 -46 -133t-128 -55q-72 0 -123 51t-51 123t51 123t123 51q59 0 105 -36.5t61 -92.5q-8 74 -68 131t-151 57q-123 0 -199 -112v-926h164v-4h-655z" />
<glyph unicode="s" horiz-adv-x="841" d="M469 -31q-53 0 -105 21t-99.5 42t-88.5 21q-34 0 -61.5 -27t-34.5 -77h-4v520h4q2 -70 32.5 -154.5t80 -161.5t123.5 -128.5t153 -51.5q68 0 107.5 41t39.5 111q0 50 -30.5 91t-79 70.5t-107 59t-117 64t-107 76.5t-79 106t-30.5 143q0 120 89.5 218t221.5 98 q54 0 148.5 -38t131.5 -38q48 0 48 76h4v-410h-4q-3 36 -16.5 85t-42 106t-65 104.5t-90.5 79t-114 31.5q-68 0 -114 -45t-46 -109q0 -45 32 -82t83 -65t112.5 -56t123 -63t112.5 -77.5t83 -107.5t32 -145q0 -140 -92 -234t-234 -94z" />
<glyph unicode="t" horiz-adv-x="733" d="M510 1020v-881q0 -45 18.5 -72.5t53.5 -27.5q76 0 76 141v228h6v-234q0 -201 -193 -201q-144 0 -216.5 86.5t-72.5 237.5v723h-162v4h54q187 0 309.5 114.5t122.5 313.5h4v-428h203v-4h-203z" />
<glyph unicode="u" horiz-adv-x="1253" d="M0 1024h492v-811q0 -117 18 -163t68 -46q53 0 97 56.5t66 146.5v813h-94v4h422v-1020h164v-4h-492v188q-61 -215 -245 -215q-166 0 -249 105.5t-83 271.5v670h-164v4z" />
<glyph unicode="v" horiz-adv-x="1128" d="M1112 1020h-164l-332 -1055l-438 1055h-164v4h658v-4h-131l232 -541l170 541h-167v4h336v-4z" />
<glyph unicode="w" horiz-adv-x="1675" d="M1659 1018l-164 2l-332 -1055l-311 748l-236 -748l-438 1055h-164v4h1205v-4h-133l233 -541l170 541h-166v4h336v-6zM772 479l76 242l-123 299h-184z" />
<glyph unicode="x" horiz-adv-x="1359" d="M68 4h182l300 396l-366 620h-159v4h710v-4h-162l196 -332l251 332h-197v4h387v-4h-184l-254 -336l402 -680h159v-4h-710v4h161l-231 391l-297 -391h199v-4h-387v4z" />
<glyph unicode="y" horiz-adv-x="1193" d="M285 -502q-50 0 -89.5 14t-63 34.5t-40.5 48.5t-24 49.5t-11 44.5q-4 20 -4 41q0 73 52 124.5t126 51.5q72 0 124.5 -51.5t52.5 -124.5t-52.5 -126t-124.5 -53q-51 0 -93.5 27.5t-66.5 71.5q52 -148 214 -148q111 0 173.5 66.5t110.5 200.5l65 180l-454 1071h-166v4h662 v-4h-131l253 -600l209 600h-165v4h336v-4h-166l-437 -1251q-48 -136 -113.5 -203.5t-176.5 -67.5z" />
<glyph unicode="z" horiz-adv-x="1044" d="M963 1024l-531 -1020h39q64 0 125.5 17t121 57.5t104.5 100t73.5 151.5t30.5 205h4v-535h-858l528 1020h-33q-57 0 -114 -14.5t-114 -48.5t-101 -83.5t-72.5 -126t-30.5 -169.5h-4v446h832z" />
<glyph unicode="{" horiz-adv-x="673" d="M113 715q185 -23 291 -127t106 -266v-480q0 -73 23.5 -104t74.5 -31h66v-4h-70q-170 0 -289.5 100t-119.5 244v488q0 178 -125 178h-70v4h70q125 0 125 178v467q0 144 119.5 244t289.5 100h70v-4h-66q-51 0 -74.5 -31t-23.5 -104v-459q0 -162 -106 -266t-291 -127z" />
<glyph unicode="|" horiz-adv-x="694" d="M515 -289h-336v1987h336v-1987z" />
<glyph unicode="}" horiz-adv-x="673" d="M561 715q-185 23 -291 127t-106 266v459q0 73 -23.5 104t-74.5 31h-66v4h70q170 0 289.5 -100t119.5 -244v-467q0 -178 125 -178h70v-4h-70q-125 0 -125 -178v-488q0 -144 -119.5 -244t-289.5 -100h-70v4h66q51 0 74.5 31t23.5 104v480q0 162 106 266t291 127z" />
<glyph unicode="~" horiz-adv-x="765" d="M480 582q-56 0 -101 15.5t-74 37.5t-54.5 44t-55.5 37.5t-64 15.5q-39 0 -57.5 -24t-18.5 -63q0 -17 1.5 -30.5t3.5 -18.5l1 -6h-4q-6 21 -6 55q0 103 65.5 160t169.5 57q56 0 101 -15.5t74 -37.5t54.5 -44t55.5 -37.5t64 -15.5q39 0 57.5 24t18.5 63q0 17 -1.5 30.5 t-3.5 18.5l-1 6h4q6 -21 6 -55q0 -103 -65.5 -160t-169.5 -57z" />
<glyph unicode="&#xa1;" horiz-adv-x="448" d="M51 879q0 72 51 123t123 51q71 0 121.5 -51t50.5 -123q0 -71 -50.5 -121.5t-121.5 -50.5q-72 0 -123 50.5t-51 121.5zM227 555q0 -112 16 -208.5t39 -164.5t46 -129.5t39 -131t16 -140.5q0 -104 -41.5 -157.5t-116.5 -53.5q-76 0 -117.5 53.5t-41.5 157.5q0 71 16 140.5 t39 131t46.5 129.5t39.5 164.5t16 208.5h4z" />
<glyph unicode="&#xa2;" horiz-adv-x="1042" d="M221 -158l102 219q-105 74 -168 192t-63 259q0 106 38.5 204t106.5 172t166 118.5t211 44.5q85 0 153 -29l118 256h6l-120 -258q118 -51 163 -186q10 -32 10 -62q0 -78 -46 -133t-128 -55q-51 0 -92.5 26t-63.5 70l-164 -356q31 -318 228 -318q137 0 212 103.5t83 289.5 h4q-4 -96 -26.5 -171t-66 -133.5t-116 -90t-170.5 -31.5q-145 0 -271 85l-100 -216h-6zM649 1041q-45 0 -79.5 -18t-57 -55t-37 -81t-21.5 -109.5t-9.5 -126t-2.5 -143.5q0 -100 7 -173l162 351q-15 33 -15 72q0 59 35.5 105.5t90.5 61.5l43 94q-52 22 -116 22zM937 803 q-12 62 -55 122.5t-112 91.5l-42 -90q22 5 42 5q57 0 104.5 -36.5t62.5 -92.5z" />
<glyph unicode="&#xa3;" horiz-adv-x="1144" d="M612 1462q187 0 298.5 -81t111.5 -228q0 -78 -46 -133t-128 -55q-72 0 -123 51t-51 123t51 123t123 51q59 0 106.5 -36.5t62.5 -92.5q-13 130 -119 201t-269 71q-122 0 -181 -70t-59 -192q0 -68 21 -126t59.5 -105.5t76.5 -84t89.5 -82.5t80.5 -79h271v-4h-268 q94 -108 94 -228q0 -32 -10 -61t-23.5 -48t-29 -34t-25.5 -21t-14 -8q133 -69 229 -69q61 0 96 24t35 68q0 31 -12.5 56.5t-24.5 35.5l-13 9l3 3q3 -2 7.5 -5.5t16.5 -18t21.5 -32t17 -47t7.5 -63.5q0 -51 -9 -96t-30.5 -85.5t-54 -70t-83 -46.5t-114.5 -17q-132 0 -283 94 l-6 -6l-7.5 -9t-10.5 -10t-14 -11l-16.5 -11t-20.5 -11t-24 -9t-28 -8t-32 -5t-37 -2q-117 0 -195 65t-78 187q0 109 71.5 178.5t194.5 69.5q40 0 80 -9t83.5 -28t73.5 -34t80.5 -44t73.5 -41q7 28 7 50q0 29 -19.5 62t-46.5 61t-71.5 62.5t-78 57.5t-84 56.5t-72.5 48.5 h-232v4h227q-105 73 -164 158t-59 194q0 121 73 212.5t184.5 136t239.5 44.5zM324 -25q123 0 192 80q-13 8 -46.5 29.5t-49 30.5t-41.5 22t-48 18t-44 5q-44 0 -68 -24.5t-24 -61.5q0 -45 34 -72t95 -27z" />
<glyph unicode="&#xa4;" horiz-adv-x="1130" d="M1079 702q0 -201 -151 -344l119 -103l-3 -2l-118 103q-73 -67 -167.5 -104t-193.5 -37t-193 37t-167 104l-119 -103l-2 2l119 103q-152 144 -152 344q0 201 152 345l-119 103l2 2l119 -103q73 67 167 104t193 37t193.5 -37t167.5 -104l118 103l3 -2l-119 -103 q151 -143 151 -345zM565 219q33 0 59.5 15t43.5 37.5t29.5 62t19 75t10 91.5t4 97.5t0.5 104.5t-0.5 104.5t-4 97.5t-10 92t-19 75.5t-29.5 62t-43.5 37.5t-59.5 15q-29 0 -53 -10t-40.5 -32t-28.5 -46t-20 -63.5t-12.5 -71.5t-6.5 -83t-2.5 -86t-0.5 -92q0 -56 0.5 -91.5 t2.5 -86.5t6.5 -83t12.5 -71t20 -63t28.5 -46t40.5 -32t53 -10z" />
<glyph unicode="&#xa5;" horiz-adv-x="1415" d="M197 934h231l-238 496h-176v4h758v-4h-205l351 -736l315 736h-209v4h375v-4h-160l-213 -496h256v-4h-258l-103 -242h361v-4h-362v-680h180v-4h-705v4h180v623l-27 57h-351v4h349l-116 242h-233v4z" />
<glyph unicode="&#xa6;" horiz-adv-x="694" d="M179 904v794h336v-794h-336zM515 538v-827h-336v827h336z" />
<glyph unicode="&#xa7;" horiz-adv-x="995" d="M539 1460q-112 0 -176 -66.5t-64 -193.5q0 -58 21.5 -101.5t58 -70.5t84 -48.5t99.5 -39t104 -37.5t99.5 -50t84 -69.5t58 -103t21.5 -144.5q0 -133 -101 -255q99 -94 99 -246q0 -108 -64 -193.5t-170 -131.5t-231 -46q-86 0 -155.5 22t-115 59.5t-73.5 81t-42 93.5 q-10 36 -10 67q0 78 46 133t128 55q72 0 123 -51t51 -123t-51 -123t-123 -51q-59 0 -106 36.5t-62 92.5q26 -139 131 -213.5t258 -74.5q109 0 176.5 69t67.5 195q0 57 -21.5 100t-58.5 70t-84.5 48t-100 39t-104.5 38t-99.5 50.5t-84.5 70t-58.5 103t-21.5 144.5 q0 132 102 257q-90 92 -90 242q0 116 60.5 201t160.5 127t227 42q86 0 156 -22t115 -59.5t73.5 -81t42.5 -93.5q10 -36 10 -66q0 -79 -46 -134t-128 -55q-72 0 -123 51t-51 123t51 123.5t123 51.5q59 0 106 -37t62 -93q-8 50 -32.5 97.5t-68.5 92t-117 71.5t-166 27z M125 719q0 -85 51 -141.5t134.5 -87.5t173.5 -54.5t186.5 -61.5t154.5 -90q58 70 58 124q0 64 -27.5 111.5t-76 77t-108 51t-129 40.5t-133.5 38.5t-127.5 51t-105.5 72.5q-51 -55 -51 -131z" />
<glyph unicode="&#xa8;" horiz-adv-x="980" d="M51 1407q0 71 50.5 121.5t121.5 50.5t121.5 -50.5t50.5 -121.5t-50.5 -121.5t-121.5 -50.5t-121.5 50.5t-50.5 121.5zM586 1407q0 71 50.5 121.5t121.5 50.5t121.5 -50.5t50.5 -121.5t-50.5 -121.5t-121.5 -50.5t-121.5 50.5t-50.5 121.5z" />
<glyph unicode="&#xa9;" horiz-adv-x="1699" d="M102 717q0 152 59 290.5t159.5 238.5t239 159t290.5 59q203 0 375 -100t272 -272t100 -375q0 -152 -59 -290.5t-159 -239t-238.5 -159.5t-290.5 -59t-290.5 59.5t-238.5 159.5t-159.5 238.5t-59.5 290.5zM106 717q0 -151 59 -289t158.5 -237.5t237.5 -158.5t289 -59 q202 0 373 99.5t270.5 271t99.5 373.5t-99.5 373t-270.5 270.5t-373 99.5t-373.5 -99.5t-271 -270.5t-99.5 -373zM829 186q-123 0 -226.5 69t-165 191t-61.5 269q0 96 33 189.5t92 168.5t149.5 121.5t196.5 46.5q68 0 140 -24.5t96 -24.5q28 0 46.5 15t23.5 29l5 15h4v-430 h-4q-5 32 -17 76.5t-38 106.5t-59 112t-85 85.5t-112 35.5q-35 0 -64.5 -13t-50.5 -32t-37.5 -52.5t-26.5 -62t-17.5 -74t-11 -75t-5.5 -78.5t-2 -71v-65q0 -121 9.5 -212.5t26.5 -150t42.5 -95t54 -51.5t64.5 -15q74 0 140 52t107.5 125t66.5 136.5t31 102.5h4v-430h-4 q0 2 -1.5 6.5t-7 14.5t-13.5 18t-23.5 14.5t-34.5 6.5q-27 0 -110 -25t-155 -25z" />
<glyph unicode="&#xaa;" horiz-adv-x="785" d="M310 1454q-84 0 -152 -43t-84 -113q11 39 43.5 65t71.5 26q51 0 86.5 -35.5t35.5 -86.5t-35.5 -86.5t-86.5 -35.5q-58 0 -89.5 38.5t-31.5 93.5q0 25 7 43q28 69 102.5 106.5t149.5 37.5q171 0 262.5 -69t91.5 -185v-377q0 -85 54 -85q23 0 35 11q21 20 26 57h4 q-6 -45 -39 -75t-98 -30q-93 0 -155 46.5t-68 110.5q-3 -25 -13.5 -50t-31.5 -50.5t-61.5 -41t-93.5 -15.5q-99 0 -154 51t-55 131q0 83 55.5 136.5t143.5 68.5q39 8 71.5 10t50.5 6q24 5 42 23t42 50v145q0 63 -30 92.5t-96 29.5zM436 1180q-40 -57 -82 -79 q-79 -44 -79 -128v-128q0 -55 9.5 -77t39.5 -22q49 0 80.5 42t31.5 86v306z" />
<glyph unicode="&#xab;" horiz-adv-x="836" d="M51 639l367 307v-4l-363 -305l363 -305v-4l-367 307v4zM419 639l366 307v-4l-362 -305l362 -305v-4l-366 307v4z" />
<glyph unicode="&#xac;" horiz-adv-x="704" d="M616 600v-215h-5v211h-525v4h530z" />
<glyph unicode="&#xad;" horiz-adv-x="704" d="M86 600h530v-4h-530v4z" />
<glyph unicode="&#xae;" horiz-adv-x="1699" d="M102 717q0 152 59 290.5t159.5 238.5t239 159t290.5 59q203 0 375 -100t272 -272t100 -375q0 -152 -59 -290.5t-159 -239t-238.5 -159.5t-290.5 -59t-290.5 59.5t-238.5 159.5t-159.5 238.5t-59.5 290.5zM106 717q0 -151 59 -289t158.5 -237.5t237.5 -158.5t289 -59 q202 0 373 99.5t270.5 271t99.5 373.5t-99.5 373t-270.5 270.5t-373 99.5t-373.5 -99.5t-271 -270.5t-99.5 -373zM1376 308q-18 -34 -43.5 -46t-72.5 -12q-54 0 -98.5 12.5t-81.5 39.5t-58 76t-21 116v88q0 183 -197 183h-65v-492h121v-4h-469v4h120v946h-120v4h432 q160 0 258 -65.5t98 -169.5q0 -88 -72 -152t-180 -69q56 -3 107.5 -18.5t98.5 -45t75 -81t28 -117.5v-118q0 -71 18 -97t51 -26q46 0 67 45zM967 988q0 123 -41 177t-135 54h-52v-450h65q46 0 73 7t49.5 29.5t31.5 66.5t9 116z" />
<glyph unicode="&#xaf;" horiz-adv-x="806" d="M87 1324h633v-4h-633v4z" />
<glyph unicode="&#xb0;" horiz-adv-x="441" d="M51 1407q0 70 49.5 119.5t120.5 49.5t120 -49t49 -120t-49.5 -120.5t-119.5 -49.5q-71 0 -120.5 49.5t-49.5 120.5zM55 1407q0 -67 49.5 -116.5t116.5 -49.5t116 49t49 117q0 67 -49 116t-116 49q-68 0 -117 -49t-49 -116z" />
<glyph unicode="&#xb1;" horiz-adv-x="928" d="M87 599h375v406h5v-406h375v-4h-375v-356h-5v356h-375v4zM87 118h753v-4h-753v4z" />
<glyph unicode="&#xb4;" horiz-adv-x="493" d="M443 1519l-385 -279h-7l385 279h7z" />
<glyph unicode="&#xb6;" horiz-adv-x="1226" d="M530 -474q70 0 104.5 48t34.5 109v813h-87q-114 0 -206.5 29t-151.5 76.5t-99 110.5t-57 127.5t-17 131.5q0 56 11 108.5t34.5 106t65 97.5t98.5 78.5t139.5 53.5t182.5 19h624v-4h-196v-1557q0 -88 -45 -158.5t-116 -111t-147.5 -61.5t-148.5 -21q-160 0 -247 79 t-102 222q-8 75 41 131.5t133 56.5q72 0 123 -51t51 -123t-51 -123t-123 -51q-59 0 -105 36.5t-61 92.5q36 -190 197 -245q60 -20 121 -20zM674 -309q0 -80 -35 -119.5t-78 -46.5q59 2 119 15.5t119 41.5t104.5 67.5t73.5 97.5t28 126v1557l-331 2v-1741z" />
<glyph unicode="&#xb7;" horiz-adv-x="397" d="M25 725q0 71 51 121.5t123 50.5q71 0 121.5 -50.5t50.5 -121.5q0 -72 -50.5 -123t-121.5 -51q-72 0 -123 51t-51 123z" />
<glyph unicode="&#xb8;" horiz-adv-x="493" d="M55 -278q1 -50 22 -85t69 -35q35 0 64 28.5t29 75.5q0 32 -14 56.5t-28 33.5l-14 8l161 196h6l-36 -44q57 -28 93 -76t36 -112q0 -97 -68.5 -152t-156.5 -55q-163 0 -167 161h4z" />
<glyph unicode="&#xba;" horiz-adv-x="812" d="M781 1087q0 -150 -113 -263t-262 -113t-262 113t-113 263t113 263.5t262 113.5t262 -113.5t113 -263.5zM522 1087q0 46 -0.5 75.5t-2 69t-5 64.5t-8.5 54t-14 46.5t-20.5 33.5t-28 23t-37.5 7t-37.5 -7t-28 -23t-20 -33t-14 -46.5t-8.5 -54t-4.5 -65t-2 -69t-0.5 -75.5 q0 -64 1 -100.5t4 -86.5t10.5 -78t20 -55.5t32.5 -39.5t47 -12q21 0 37.5 7t28 22.5t20.5 33t14 46.5t8.5 54t5 64.5t2 69t0.5 75.5z" />
<glyph unicode="&#xbb;" horiz-adv-x="836" d="M418 634l-367 -307v4l363 305l-363 305v4l367 -307v-4zM785 634l-366 -307v4l362 305l-362 305v4l366 -307v-4z" />
<glyph unicode="&#xbf;" horiz-adv-x="1019" d="M702 878q0 -71 -51 -121.5t-123 -50.5q-70 0 -121 51t-51 121q0 72 50.5 123t121.5 51q72 0 123 -51t51 -123zM575 -419q165 0 282.5 65.5t135.5 180.5q-15 -56 -62 -92.5t-106 -36.5q-72 0 -123 51t-51 123t51 123t123 51q82 0 128 -55t46 -133q0 -88 -62.5 -155 t-164.5 -100.5t-225 -33.5q-121 0 -217.5 23.5t-157 60.5t-100.5 86t-56 97.5t-16 98.5q0 75 32 133.5t83 94.5t113 65t123.5 53t112.5 50t83 65t32 90q0 46 -26 97q58 -89 58 -176q0 -59 -28.5 -112.5t-69 -98t-80.5 -92.5t-68.5 -119t-28.5 -156q0 -121 61.5 -184.5 t177.5 -63.5z" />
<glyph unicode="&#xc0;" horiz-adv-x="1456" d="M510 1829l385 -279h-7l-385 279h7zM719 0v4h188l-196 488h-359l-174 -488h189v-4h-353v4h159l524 1464l593 -1464h150v-4h-721zM354 496h355l-188 466z" />
<glyph unicode="&#xc1;" horiz-adv-x="1456" d="M895 1825l-385 -279h-7l385 279h7zM719 0v4h188l-196 488h-359l-174 -488h189v-4h-353v4h159l524 1464l593 -1464h150v-4h-721zM354 496h355l-188 466z" />
<glyph unicode="&#xc2;" horiz-adv-x="1456" d="M1080 1551l-382 277l-381 -277h-8l389 282l389 -282h-7zM719 0v4h188l-196 488h-359l-174 -488h189v-4h-353v4h159l524 1464l593 -1464h150v-4h-721zM354 496h355l-188 466z" />
<glyph unicode="&#xc3;" horiz-adv-x="1456" d="M796 1565q-56 0 -101 15.5t-74 37.5t-55 44t-56 37.5t-64 15.5q-75 0 -75 -87q0 -17 1.5 -30.5t3.5 -19.5l1 -5h-4q-6 21 -6 55q0 103 65 160t169 57q56 0 101 -15.5t74 -37.5t54.5 -44t55.5 -37.5t64 -15.5q39 0 57.5 24t18.5 63q0 17 -1.5 30.5t-2.5 19.5l-2 5h4 q6 -21 6 -55q0 -103 -65 -160t-169 -57zM719 0v4h188l-196 488h-359l-174 -488h189v-4h-353v4h159l524 1464l593 -1464h150v-4h-721zM354 496h355l-188 466z" />
<glyph unicode="&#xc4;" horiz-adv-x="1456" d="M257 1714q0 71 50.5 121.5t121.5 50.5t121.5 -50.5t50.5 -121.5t-50.5 -121.5t-121.5 -50.5t-121.5 50.5t-50.5 121.5zM792 1714q0 71 50.5 121.5t121.5 50.5t121.5 -50.5t50.5 -121.5t-50.5 -121.5t-121.5 -50.5t-121.5 50.5t-50.5 121.5zM719 0v4h188l-196 488h-359 l-174 -488h189v-4h-353v4h159l524 1464l593 -1464h150v-4h-721zM354 496h355l-188 466z" />
<glyph unicode="&#xc5;" horiz-adv-x="1456" d="M528 1714q0 70 49.5 119.5t120.5 49.5q70 0 119.5 -49.5t49.5 -119.5q0 -71 -49.5 -120.5t-119.5 -49.5t-120 50t-50 120zM532 1714q0 -68 49 -117t117 -49q67 0 116 49t49 117t-48.5 116.5t-116.5 48.5t-117 -49t-49 -116zM719 0v4h188l-196 488h-359l-174 -488h189v-4 h-353v4h159l524 1464l593 -1464h150v-4h-721zM354 496h355l-188 466z" />
<glyph unicode="&#xc6;" horiz-adv-x="2082" d="M185 4l847 1426h-180v4h1079v-519h-4q-1 11 -4.5 29.5t-18.5 72t-35.5 102t-59.5 108t-86.5 102t-120 72t-156.5 29.5h-70v-693h25q53 0 98.5 18.5t75 48.5t52.5 66t35.5 72t20.5 66t11 48l2 19h4v-680h-4q-1 7 -2.5 19t-10 47.5t-21 67t-36 70.5t-52.5 67.5t-74.5 47.5 t-98.5 19h-25v-729h70q82 0 153.5 19t123 51.5t94.5 74t71 87.5t50 92.5t33.5 88t18.5 74t9 51.5l2 19h4v-561h-1153v4h180v729h-408l-434 -729h263v-4h-439v4h171zM1032 737v683l-406 -683h406z" />
<glyph unicode="&#xc7;" horiz-adv-x="1171" d="M456 -304q1 -50 22 -85.5t69 -35.5q35 0 63.5 28.5t28.5 75.5q0 32 -13.5 56.5t-27.5 33.5l-14 9l158 193q-28 -2 -44 -2q-131 0 -250 57.5t-206.5 156.5t-139 239t-51.5 297q0 109 29 216.5t87.5 202.5t137.5 168t187 115.5t229 42.5q169 0 281 -75t145 -177 q10 -36 10 -61q0 -78 -46 -133t-128 -55q-72 0 -123 51t-51 123t51 123t123 51q59 0 105.5 -36.5t61.5 -92.5q-7 48 -38.5 95.5t-84 89t-132.5 67.5t-174 26q-63 0 -112.5 -29t-80.5 -70t-53.5 -111.5t-33 -125.5t-16.5 -142.5t-6.5 -132.5t-0.5 -122v-10 q0 -171 13.5 -300.5t37 -213t59.5 -136t77 -73.5t93 -21q175 0 303.5 125.5t165.5 350.5h4q-18 -123 -70 -223.5t-143 -170.5t-208 -83l-35 -43q57 -28 93 -76t36 -112q0 -97 -69 -152t-157 -55q-162 0 -166 162h4z" />
<glyph unicode="&#xc8;" horiz-adv-x="1265" d="M475 1849l385 -278h-7l-385 278h7zM1188 0h-1153v4h180v1426h-180v4h1079v-519h-4q-1 11 -4.5 29.5t-18.5 72t-35.5 102t-59.5 108t-86.5 102t-120 72t-156.5 29.5h-70v-693h25q53 0 98.5 18.5t75 48.5t52.5 66t35.5 72t20.5 66t10 48l3 19h4v-680h-4q-1 7 -2.5 19 t-10 47.5t-21 67t-36 70.5t-52.5 67.5t-74.5 47.5t-98.5 19h-25v-729h70q82 0 153.5 19t123 51.5t94.5 74t71 87.5t50 92.5t33.5 88t18.5 74t9 51.5l2 19h4v-561z" />
<glyph unicode="&#xc9;" horiz-adv-x="1265" d="M860 1845l-385 -278h-7l385 278h7zM1188 0h-1153v4h180v1426h-180v4h1079v-519h-4q-1 11 -4.5 29.5t-18.5 72t-35.5 102t-59.5 108t-86.5 102t-120 72t-156.5 29.5h-70v-693h25q53 0 98.5 18.5t75 48.5t52.5 66t35.5 72t20.5 66t10 48l3 19h4v-680h-4q-1 7 -2.5 19 t-10 47.5t-21 67t-36 70.5t-52.5 67.5t-74.5 47.5t-98.5 19h-25v-729h70q82 0 153.5 19t123 51.5t94.5 74t71 87.5t50 92.5t33.5 88t18.5 74t9 51.5l2 19h4v-561z" />
<glyph unicode="&#xca;" horiz-adv-x="1265" d="M1046 1572l-382 276l-381 -276h-9l390 281l389 -281h-7zM1188 0h-1153v4h180v1426h-180v4h1079v-519h-4q-1 11 -4.5 29.5t-18.5 72t-35.5 102t-59.5 108t-86.5 102t-120 72t-156.5 29.5h-70v-693h25q53 0 98.5 18.5t75 48.5t52.5 66t35.5 72t20.5 66t10 48l3 19h4v-680 h-4q-1 7 -2.5 19t-10 47.5t-21 67t-36 70.5t-52.5 67.5t-74.5 47.5t-98.5 19h-25v-729h70q82 0 153.5 19t123 51.5t94.5 74t71 87.5t50 92.5t33.5 88t18.5 74t9 51.5l2 19h4v-561z" />
<glyph unicode="&#xcb;" horiz-adv-x="1265" d="M222 1735q0 71 50.5 121.5t121.5 50.5t121.5 -50.5t50.5 -121.5t-50.5 -121.5t-121.5 -50.5t-121.5 50.5t-50.5 121.5zM757 1735q0 71 50.5 121.5t121.5 50.5t121.5 -50.5t50.5 -121.5t-50.5 -121.5t-121.5 -50.5t-121.5 50.5t-50.5 121.5zM1188 0h-1153v4h180v1426h-180 v4h1079v-519h-4q-1 11 -4.5 29.5t-18.5 72t-35.5 102t-59.5 108t-86.5 102t-120 72t-156.5 29.5h-70v-693h25q53 0 98.5 18.5t75 48.5t52.5 66t35.5 72t20.5 66t10 48l3 19h4v-680h-4q-1 7 -2.5 19t-10 47.5t-21 67t-36 70.5t-52.5 67.5t-74.5 47.5t-98.5 19h-25v-729h70 q82 0 153.5 19t123 51.5t94.5 74t71 87.5t50 92.5t33.5 88t18.5 74t9 51.5l2 19h4v-561z" />
<glyph unicode="&#xcc;" horiz-adv-x="776" d="M202 1850l385 -278h-7l-385 278h7zM559 4h180v-4h-704v4h180v1426h-180v4h704v-4h-180v-1426z" />
<glyph unicode="&#xcd;" horiz-adv-x="776" d="M587 1846l-385 -278h-7l385 278h7zM559 4h180v-4h-704v4h180v1426h-180v4h704v-4h-180v-1426z" />
<glyph unicode="&#xce;" horiz-adv-x="776" d="M771 1573l-382 276l-381 -276h-8l389 281l389 -281h-7zM558 4h180v-4h-704v4h180v1426h-180v4h704v-4h-180v-1426z" />
<glyph unicode="&#xcf;" horiz-adv-x="776" d="M-51 1736q0 71 50.5 121.5t121.5 50.5t121.5 -50.5t50.5 -121.5t-50.5 -121.5t-121.5 -50.5t-121.5 50.5t-50.5 121.5zM483 1736q0 71 50.5 121.5t121.5 50.5t121.5 -50.5t50.5 -121.5t-50.5 -121.5t-121.5 -50.5t-121.5 50.5t-50.5 121.5zM559 4h180v-4h-704v4h180v1426 h-180v4h704v-4h-180v-1426z" />
<glyph unicode="&#xd0;" horiz-adv-x="1501" d="M678 1434q113 0 224 -30.5t210 -91.5t174.5 -145.5t119.5 -201t44 -248.5t-44 -248.5t-119.5 -201t-174.5 -145.5t-210 -91.5t-224 -30.5h-643v4h180v726h-180v4h180v696h-180v4h643zM678 4q79 0 141 16.5t107 46.5t77.5 78.5t53 104t32.5 132.5t16.5 155t4.5 180 t-4.5 180t-16.5 155t-32.5 132.5t-53 104t-77.5 78.5t-107 46.5t-141 16.5h-119v-696h249v-4h-249v-726h119z" />
<glyph unicode="&#xd1;" horiz-adv-x="1349" d="M780 1586q-56 0 -101 15.5t-74 38t-54.5 44.5t-55.5 37.5t-64 15.5q-39 0 -57.5 -24t-18.5 -63q0 -17 1.5 -31t3.5 -19l1 -6h-4q-6 22 -6 56q0 103 65.5 160t169.5 57q56 0 101 -15.5t74 -37.5t54.5 -44.5t55.5 -38t64 -15.5q39 0 57.5 24t18.5 63q0 17 -1.5 31t-3.5 20 l-1 5h4q6 -22 6 -56q0 -103 -65.5 -160t-169.5 -57zM1323 1427h-180v-1447l-933 1338v-1314h181v-4h-366v4h180v1426h-180v4h536l577 -827v820h-182v7h367v-7z" />
<glyph unicode="&#xd2;" horiz-adv-x="1511" d="M567 1850l385 -278h-7l-385 278h7zM1460 717q0 -152 -63 -293t-163 -239.5t-226.5 -157t-251.5 -58.5t-251.5 58.5t-227 157t-163.5 239.5t-63 293t63 293t163.5 239t227 156.5t251.5 58.5t251.5 -58.5t226.5 -156.5t163 -239t63 -293zM1094 717q0 288 -37 451.5 t-108.5 227.5t-192.5 64t-192.5 -64t-108.5 -227.5t-37 -451.5t37 -452t108.5 -228t192.5 -64t192.5 64t108.5 228t37 452z" />
<glyph unicode="&#xd3;" horiz-adv-x="1511" d="M952 1846l-385 -278h-7l385 278h7zM1460 717q0 -152 -63 -293t-163 -239.5t-226.5 -157t-251.5 -58.5t-251.5 58.5t-227 157t-163.5 239.5t-63 293t63 293t163.5 239t227 156.5t251.5 58.5t251.5 -58.5t226.5 -156.5t163 -239t63 -293zM1094 717q0 288 -37 451.5 t-108.5 227.5t-192.5 64t-192.5 -64t-108.5 -227.5t-37 -451.5t37 -452t108.5 -228t192.5 -64t192.5 64t108.5 228t37 452z" />
<glyph unicode="&#xd4;" horiz-adv-x="1511" d="M1138 1573l-382 276l-381 -276h-8l389 281l389 -281h-7zM1460 717q0 -152 -63 -293t-163 -239.5t-226.5 -157t-251.5 -58.5t-251.5 58.5t-227 157t-163.5 239.5t-63 293t63 293t163.5 239t227 156.5t251.5 58.5t251.5 -58.5t226.5 -156.5t163 -239t63 -293zM1094 717 q0 288 -37 451.5t-108.5 227.5t-192.5 64t-192.5 -64t-108.5 -227.5t-37 -451.5t37 -452t108.5 -228t192.5 -64t192.5 64t108.5 228t37 452z" />
<glyph unicode="&#xd5;" horiz-adv-x="1511" d="M853 1586q-56 0 -101 15.5t-74 38t-54.5 44.5t-55.5 37.5t-64 15.5q-39 0 -57.5 -24t-18.5 -63q0 -17 1.5 -31t2.5 -19l2 -6h-4q-6 22 -6 56q0 103 65 160t169 57q56 0 101 -15.5t74 -37.5t55 -44.5t56 -38t64 -15.5q75 0 75 87q0 17 -1.5 31t-3.5 20l-1 5h4q6 -22 6 -56 q0 -103 -65 -160t-169 -57zM1460 717q0 -152 -63 -293t-163 -239.5t-226.5 -157t-251.5 -58.5t-251.5 58.5t-227 157t-163.5 239.5t-63 293t63 293t163.5 239t227 156.5t251.5 58.5t251.5 -58.5t226.5 -156.5t163 -239t63 -293zM1094 717q0 288 -37 451.5t-108.5 227.5 t-192.5 64t-192.5 -64t-108.5 -227.5t-37 -451.5t37 -452t108.5 -228t192.5 -64t192.5 64t108.5 228t37 452z" />
<glyph unicode="&#xd6;" horiz-adv-x="1511" d="M314 1736q0 71 50.5 121.5t121.5 50.5t121.5 -50.5t50.5 -121.5t-50.5 -121.5t-121.5 -50.5t-121.5 50.5t-50.5 121.5zM849 1736q0 71 50.5 121.5t121.5 50.5t121.5 -50.5t50.5 -121.5t-50.5 -121.5t-121.5 -50.5t-121.5 50.5t-50.5 121.5zM1460 717q0 -152 -63 -293 t-163 -239.5t-226.5 -157t-251.5 -58.5t-251.5 58.5t-227 157t-163.5 239.5t-63 293t63 293t163.5 239t227 156.5t251.5 58.5t251.5 -58.5t226.5 -156.5t163 -239t63 -293zM1094 717q0 288 -37 451.5t-108.5 227.5t-192.5 64t-192.5 -64t-108.5 -227.5t-37 -451.5t37 -452 t108.5 -228t192.5 -64t192.5 64t108.5 228t37 452z" />
<glyph unicode="&#xd7;" horiz-adv-x="871" d="M87 254l345 344l-345 345l4 3l344 -344l345 344l3 -2l-345 -345l346 -346l-3 -4l-346 346l-345 -344z" />
<glyph unicode="&#xd8;" horiz-adv-x="1511" d="M487 35q-187 91 -311.5 275.5t-124.5 406.5q0 152 63 293t163.5 239t227 156.5t251.5 58.5q130 0 258 -61l63 164h5l-63 -166q190 -90 315.5 -275t125.5 -409q0 -152 -63 -293t-163 -239.5t-226.5 -157t-251.5 -58.5q-130 0 -264 64l-59 -154h-5zM418 717q0 -456 95 -617 l478 1243q-76 117 -235 117q-121 0 -192.5 -64t-108.5 -227.5t-37 -451.5zM1094 717q0 459 -100 621l-478 -1243q75 -122 240 -122q121 0 192.5 64t108.5 228t37 452z" />
<glyph unicode="&#xd9;" horiz-adv-x="1333" d="M603 1850l385 -278h-7l-385 278h7zM1327 1430h-180v-1047q0 -48 -4.5 -90t-16 -85t-30 -77.5t-48.5 -65.5t-69.5 -51.5t-94 -32.5t-120.5 -12q-95 0 -175 15t-152 50t-122.5 89.5t-80 137.5t-29.5 190v979h-180v4h704v-4h-180v-1045q0 -100 12 -167.5t43.5 -118.5t88 -75 t141.5 -24q60 0 108 15.5t79.5 39t55 58.5t35.5 68t19.5 73.5t9 68.5t1.5 60v1047h-181v4h366v-4z" />
<glyph unicode="&#xda;" horiz-adv-x="1333" d="M988 1846l-385 -278h-7l385 278h7zM1327 1430h-180v-1047q0 -48 -4.5 -90t-16 -85t-30 -77.5t-48.5 -65.5t-69.5 -51.5t-94 -32.5t-120.5 -12q-95 0 -175 15t-152 50t-122.5 89.5t-80 137.5t-29.5 190v979h-180v4h704v-4h-180v-1045q0 -100 12 -167.5t43.5 -118.5t88 -75 t141.5 -24q60 0 108 15.5t79.5 39t55 58.5t35.5 68t19.5 73.5t9 68.5t1.5 60v1047h-181v4h366v-4z" />
<glyph unicode="&#xdb;" horiz-adv-x="1333" d="M1174 1573l-382 276l-381 -276h-9l390 281l389 -281h-7zM1327 1430h-180v-1047q0 -48 -4.5 -90t-16 -85t-30 -77.5t-48.5 -65.5t-69.5 -51.5t-94 -32.5t-120.5 -12q-95 0 -175 15t-152 50t-122.5 89.5t-80 137.5t-29.5 190v979h-180v4h704v-4h-180v-1045 q0 -100 12 -167.5t43.5 -118.5t88 -75t141.5 -24q60 0 108 15.5t79.5 39t55 58.5t35.5 68t19.5 73.5t9 68.5t1.5 60v1047h-181v4h366v-4z" />
<glyph unicode="&#xdc;" horiz-adv-x="1333" d="M350 1736q0 71 50.5 121.5t121.5 50.5t121.5 -50.5t50.5 -121.5t-50.5 -121.5t-121.5 -50.5t-121.5 50.5t-50.5 121.5zM885 1736q0 71 50.5 121.5t121.5 50.5t121.5 -50.5t50.5 -121.5t-50.5 -121.5t-121.5 -50.5t-121.5 50.5t-50.5 121.5zM1327 1430h-180v-1047 q0 -48 -4.5 -90t-16 -85t-30 -77.5t-48.5 -65.5t-69.5 -51.5t-94 -32.5t-120.5 -12q-95 0 -175 15t-152 50t-122.5 89.5t-80 137.5t-29.5 190v979h-180v4h704v-4h-180v-1045q0 -100 12 -167.5t43.5 -118.5t88 -75t141.5 -24q60 0 108 15.5t79.5 39t55 58.5t35.5 68 t19.5 73.5t9 68.5t1.5 60v1047h-181v4h366v-4z" />
<glyph unicode="&#xdd;" horiz-adv-x="1415" d="M983 1846l-385 -278h-7l385 278h7zM1399 1430h-160l-319 -746v-680h180v-4h-705v4h180v623l-385 803h-176v4h758v-4h-205l351 -736l315 736h-209v4h375v-4z" />
<glyph unicode="&#xde;" horiz-adv-x="1316" d="M649 250h-90v-246h180v-4h-704v4h180v1426h-180v4h704v-4h-180v-230h90q301 0 459 -126t158 -349t-158 -349t-459 -126zM612 1196h-53v-942h53q82 0 142.5 22.5t108.5 74.5t73 146t25 228t-25 228t-73 146t-108.5 74.5t-142.5 22.5z" />
<glyph unicode="&#xdf;" horiz-adv-x="1417" d="M931 -27q-81 0 -142 21.5t-98.5 60.5t-59.5 79.5t-36 92.5q-10 36 -10 67q0 78 46 133t128 55q72 0 123 -51t51 -123t-51 -123t-123 -51q-59 0 -106 36.5t-62 92.5q9 -43 21.5 -77.5t38 -75.5t60.5 -68.5t92 -46t129 -18.5q214 0 214 252q0 65 -24 115t-62 83.5 t-84.5 62.5t-92.5 58.5t-84 64.5t-62 89.5t-24 123.5q0 53 23.5 97.5t59 74t76.5 59.5t76.5 54.5t59 58.5t23.5 72q0 67 -30 120.5t-79.5 85.5t-109 48.5t-122.5 16.5q-97 0 -134 -52t-37 -164v-1297h-499v4h171v1122q0 189 127.5 290.5t371.5 101.5q154 0 250.5 -79 t96.5 -195q0 -58 -12 -105t-27 -73t-27 -60t-12 -68q0 -32 22.5 -60t59 -51.5t80.5 -49t88 -60t80.5 -76t59 -105t22.5 -140.5q0 -185 -115 -304t-325 -119z" />
<glyph unicode="&#xe0;" d="M357 1522l385 -279h-7l-385 279h7zM454 1039q-73 0 -142.5 -27.5t-121.5 -80t-67 -118.5q15 55 63 92t105 37q72 0 123 -51t51 -123t-51 -123t-123 -51q-82 0 -128 55t-46 133q0 36 10 62q20 52 61 93.5t91 65t100.5 35.5t96.5 12q224 0 350 -99t126 -263v-541 q0 -120 78 -120q33 0 49 16q28 26 37 82h4q-28 -152 -184 -152q-125 0 -211.5 67.5t-95.5 158.5q-3 -36 -18.5 -71.5t-46.5 -72t-88.5 -59.5t-133.5 -23q-126 0 -201 73.5t-75 186.5q0 116 76.5 193.5t187.5 99.5q52 10 99 13t75 11q57 14 121 104v211q0 91 -42 132.5 t-129 41.5zM625 647q-30 -42 -56.5 -65.5t-62.5 -44.5q-113 -63 -113 -189v-182q0 -82 14 -119t56 -37q64 0 113 66.5t49 128.5v442z" />
<glyph unicode="&#xe1;" d="M742 1518l-385 -279h-7l385 279h7zM454 1039q-73 0 -142.5 -27.5t-121.5 -80t-67 -118.5q15 55 63 92t105 37q72 0 123 -51t51 -123t-51 -123t-123 -51q-82 0 -128 55t-46 133q0 36 10 62q20 52 61 93.5t91 65t100.5 35.5t96.5 12q224 0 350 -99t126 -263v-541 q0 -120 78 -120q33 0 49 16q28 26 37 82h4q-28 -152 -184 -152q-125 0 -211.5 67.5t-95.5 158.5q-3 -36 -18.5 -71.5t-46.5 -72t-88.5 -59.5t-133.5 -23q-126 0 -201 73.5t-75 186.5q0 116 76.5 193.5t187.5 99.5q52 10 99 13t75 11q57 14 121 104v211q0 91 -42 132.5 t-129 41.5zM625 647q-30 -42 -56.5 -65.5t-62.5 -44.5q-113 -63 -113 -189v-182q0 -82 14 -119t56 -37q64 0 113 66.5t49 128.5v442z" />
<glyph unicode="&#xe2;" d="M928 1244l-382 277l-381 -277h-8l389 282l389 -282h-7zM454 1039q-73 0 -142.5 -27.5t-121.5 -80t-67 -118.5q15 55 63 92t105 37q72 0 123 -51t51 -123t-51 -123t-123 -51q-82 0 -128 55t-46 133q0 36 10 62q20 52 61 93.5t91 65t100.5 35.5t96.5 12q224 0 350 -99 t126 -263v-541q0 -120 78 -120q33 0 49 16q28 26 37 82h4q-28 -152 -184 -152q-125 0 -211.5 67.5t-95.5 158.5q-3 -36 -18.5 -71.5t-46.5 -72t-88.5 -59.5t-133.5 -23q-126 0 -201 73.5t-75 186.5q0 116 76.5 193.5t187.5 99.5q52 10 99 13t75 11q57 14 121 104v211 q0 91 -42 132.5t-129 41.5zM625 647q-30 -42 -56.5 -65.5t-62.5 -44.5q-113 -63 -113 -189v-182q0 -82 14 -119t56 -37q64 0 113 66.5t49 128.5v442z" />
<glyph unicode="&#xe3;" d="M643 1257q-56 0 -101 15.5t-74 37.5t-54.5 44.5t-55.5 38t-64 15.5q-39 0 -57.5 -24t-18.5 -63q0 -17 1.5 -30.5t2.5 -18.5l2 -6h-4q-6 21 -6 55q0 103 65.5 160t169.5 57q56 0 101 -15.5t74 -37.5t54.5 -44t55.5 -37.5t64 -15.5q75 0 75 87q0 17 -1.5 30.5t-3.5 18.5 l-1 6h4q7 -21 7 -55q0 -103 -65.5 -160.5t-169.5 -57.5zM454 1039q-73 0 -142.5 -27.5t-121.5 -80t-67 -118.5q15 55 63 92t105 37q72 0 123 -51t51 -123t-51 -123t-123 -51q-82 0 -128 55t-46 133q0 36 10 62q20 52 61 93.5t91 65t100.5 35.5t96.5 12q224 0 350 -99 t126 -263v-541q0 -120 78 -120q33 0 49 16q28 26 37 82h4q-28 -152 -184 -152q-125 0 -211.5 67.5t-95.5 158.5q-3 -36 -18.5 -71.5t-46.5 -72t-88.5 -59.5t-133.5 -23q-126 0 -201 73.5t-75 186.5q0 116 76.5 193.5t187.5 99.5q52 10 99 13t75 11q57 14 121 104v211 q0 91 -42 132.5t-129 41.5zM625 647q-30 -42 -56.5 -65.5t-62.5 -44.5q-113 -63 -113 -189v-182q0 -82 14 -119t56 -37q64 0 113 66.5t49 128.5v442z" />
<glyph unicode="&#xe4;" d="M104 1407q0 71 50.5 121.5t121.5 50.5t122 -50.5t51 -121.5t-51 -121.5t-122 -50.5t-121.5 50.5t-50.5 121.5zM639 1407q0 71 50.5 121.5t121.5 50.5t121.5 -50.5t50.5 -121.5t-50.5 -121.5t-121.5 -50.5t-121.5 50.5t-50.5 121.5zM454 1039q-73 0 -142.5 -27.5 t-121.5 -80t-67 -118.5q15 55 63 92t105 37q72 0 123 -51t51 -123t-51 -123t-123 -51q-82 0 -128 55t-46 133q0 36 10 62q20 52 61 93.5t91 65t100.5 35.5t96.5 12q224 0 350 -99t126 -263v-541q0 -120 78 -120q33 0 49 16q28 26 37 82h4q-28 -152 -184 -152 q-125 0 -211.5 67.5t-95.5 158.5q-3 -36 -18.5 -71.5t-46.5 -72t-88.5 -59.5t-133.5 -23q-126 0 -201 73.5t-75 186.5q0 116 76.5 193.5t187.5 99.5q52 10 99 13t75 11q57 14 121 104v211q0 91 -42 132.5t-129 41.5zM625 647q-30 -42 -56.5 -65.5t-62.5 -44.5 q-113 -63 -113 -189v-182q0 -82 14 -119t56 -37q64 0 113 66.5t49 128.5v442z" />
<glyph unicode="&#xe5;" d="M376 1407q0 70 49.5 119.5t120.5 49.5q70 0 119.5 -49t49.5 -120t-49.5 -120.5t-119.5 -49.5t-120 49.5t-50 120.5zM380 1407q0 -67 49 -116.5t117 -49.5q67 0 116 49t49 117q0 67 -48.5 116t-116.5 49t-117 -49t-49 -116zM454 1039q-73 0 -142.5 -27.5t-121.5 -80 t-67 -118.5q15 55 63 92t105 37q72 0 123 -51t51 -123t-51 -123t-123 -51q-82 0 -128 55t-46 133q0 36 10 62q20 52 61 93.5t91 65t100.5 35.5t96.5 12q224 0 350 -99t126 -263v-541q0 -120 78 -120q33 0 49 16q28 26 37 82h4q-28 -152 -184 -152q-125 0 -211.5 67.5 t-95.5 158.5q-3 -36 -18.5 -71.5t-46.5 -72t-88.5 -59.5t-133.5 -23q-126 0 -201 73.5t-75 186.5q0 116 76.5 193.5t187.5 99.5q52 10 99 13t75 11q57 14 121 104v211q0 91 -42 132.5t-129 41.5zM625 647q-30 -42 -56.5 -65.5t-62.5 -44.5q-113 -63 -113 -189v-182 q0 -82 14 -119t56 -37q64 0 113 66.5t49 128.5v442z" />
<glyph unicode="&#xe6;" horiz-adv-x="1615" d="M625 874q0 86 -42.5 125.5t-128.5 39.5q-73 0 -142.5 -27.5t-121.5 -80t-67 -118.5q15 55 63 92t105 37q72 0 123 -51t51 -123t-51 -123t-123 -51q-82 0 -128 55t-46 133q0 36 10 62q20 52 61 93.5t91 65t100.5 35.5t96.5 12q230 0 358 -106q131 107 284 107 q98 0 185.5 -43t150 -116t99 -171.5t36.5 -206.5h-614v-57q0 -70 1.5 -115t6 -97.5t13.5 -85t25.5 -65t40 -50t57.5 -28.5t79 -11q139 0 233.5 91t133.5 264h4q-50 -214 -175 -300.5t-368 -86.5q-71 0 -136.5 11.5t-126 36t-97 70.5t-37.5 108q-3 -36 -18.5 -71.5t-46.5 -72 t-88.5 -59.5t-133.5 -23q-126 0 -201 73.5t-75 186.5q0 116 76.5 193.5t187.5 99.5q52 10 99 13t75 11q57 14 121 104v220zM1118 1047q-33 0 -57 -12t-39.5 -38.5t-25 -56.5t-14 -80t-6 -94.5t-1.5 -112.5v-135h266q0 120 -1.5 199t-7 141.5t-13.5 96.5t-23 56t-32.5 29 t-45.5 7zM625 647q-30 -42 -56.5 -65.5t-62.5 -44.5q-113 -63 -113 -189v-182q0 -82 14 -119t56 -37q64 0 113 66.5t49 128.5v442z" />
<glyph unicode="&#xe7;" horiz-adv-x="929" d="M298 -290q1 -50 22 -85.5t69 -35.5q35 0 63.5 29t28.5 76q0 20 -5.5 37.5t-13.5 28t-16.5 18.5t-13.5 11l-6 3l149 182q-8 -1 -24 -1q-98 0 -190.5 41.5t-162 112.5t-111.5 172t-42 213q0 106 38.5 204t106.5 172t166 118.5t211 44.5q252 0 320 -207q10 -32 10 -62 q0 -78 -46 -133t-128 -55q-72 0 -123 51t-51 123t51 123t123 51q57 0 104.5 -36.5t62.5 -92.5q-9 41 -29.5 79.5t-54 73t-86.5 55t-118 20.5q-45 0 -79.5 -18t-57 -55t-37 -81t-21.5 -109.5t-9.5 -126t-2.5 -143.5q0 -47 1 -81t5.5 -90.5t13.5 -97t26.5 -87.5t41.5 -76.5 t62 -49.5t86 -20q137 0 212 103.5t83 289.5h4q-17 -406 -348 -425l-25 -30q57 -28 93 -76.5t36 -112.5q0 -97 -68.5 -152t-156.5 -55q-77 0 -121 39.5t-46 122.5h4z" />
<glyph unicode="&#xe8;" horiz-adv-x="1036" d="M369 1522l385 -279h-8l-385 279h8zM395 514v-57q0 -70 1.5 -115t6 -97.5t13.5 -85t25.5 -65t40 -50t57.5 -28.5t79 -11q141 0 235 93t132 262h4q-87 -387 -450 -387q-128 0 -242 74t-183 199t-69 266t69 266t183 199t242 74q98 0 185.5 -43t150 -116t99 -171.5 t36.5 -206.5h-615zM539 1047q-33 0 -57 -12t-39.5 -38t-25.5 -56.5t-14.5 -80t-6 -94.5t-1.5 -113v-135h267q0 120 -1.5 199t-7 141.5t-13.5 96.5t-23 56t-32.5 29t-45.5 7z" />
<glyph unicode="&#xe9;" horiz-adv-x="1036" d="M754 1518l-385 -279h-8l385 279h8zM395 514v-57q0 -70 1.5 -115t6 -97.5t13.5 -85t25.5 -65t40 -50t57.5 -28.5t79 -11q141 0 235 93t132 262h4q-87 -387 -450 -387q-128 0 -242 74t-183 199t-69 266t69 266t183 199t242 74q98 0 185.5 -43t150 -116t99 -171.5 t36.5 -206.5h-615zM539 1047q-33 0 -57 -12t-39.5 -38t-25.5 -56.5t-14.5 -80t-6 -94.5t-1.5 -113v-135h267q0 120 -1.5 199t-7 141.5t-13.5 96.5t-23 56t-32.5 29t-45.5 7z" />
<glyph unicode="&#xea;" horiz-adv-x="1036" d="M939 1244l-382 277l-381 -277h-8l389 282l389 -282h-7zM395 514v-57q0 -70 1.5 -115t6 -97.5t13.5 -85t25.5 -65t40 -50t57.5 -28.5t79 -11q141 0 235 93t132 262h4q-87 -387 -450 -387q-128 0 -242 74t-183 199t-69 266t69 266t183 199t242 74q98 0 185.5 -43t150 -116 t99 -171.5t36.5 -206.5h-615zM539 1047q-33 0 -57 -12t-39.5 -38t-25.5 -56.5t-14.5 -80t-6 -94.5t-1.5 -113v-135h267q0 120 -1.5 199t-7 141.5t-13.5 96.5t-23 56t-32.5 29t-45.5 7z" />
<glyph unicode="&#xeb;" horiz-adv-x="1036" d="M116 1407q0 71 50.5 121.5t121.5 50.5t121.5 -50.5t50.5 -121.5t-50.5 -121.5t-121.5 -50.5t-121.5 50.5t-50.5 121.5zM650 1407q0 71 50.5 121.5t121.5 50.5t121.5 -50.5t50.5 -121.5t-50.5 -121.5t-121.5 -50.5t-121.5 50.5t-50.5 121.5zM395 514v-57q0 -70 1.5 -115 t6 -97.5t13.5 -85t25.5 -65t40 -50t57.5 -28.5t79 -11q141 0 235 93t132 262h4q-87 -387 -450 -387q-128 0 -242 74t-183 199t-69 266t69 266t183 199t242 74q98 0 185.5 -43t150 -116t99 -171.5t36.5 -206.5h-615zM539 1047q-33 0 -57 -12t-39.5 -38t-25.5 -56.5t-14.5 -80 t-6 -94.5t-1.5 -113v-135h267q0 120 -1.5 199t-7 141.5t-13.5 96.5t-23 56t-32.5 29t-45.5 7z" />
<glyph unicode="&#xec;" horiz-adv-x="706" d="M172 1522l385 -279h-7l-385 279h7zM31 0v4h164v1016h-164v4h491v-1020h164v-4h-655z" />
<glyph unicode="&#xed;" horiz-adv-x="706" d="M557 1518l-385 -279h-7l385 279h7zM31 0v4h164v1016h-164v4h491v-1020h164v-4h-655z" />
<glyph unicode="&#xee;" horiz-adv-x="706" d="M742 1244l-382 277l-380 -277h-9l389 282l390 -282h-8zM31 0v4h164v1016h-164v4h491v-1020h164v-4h-655z" />
<glyph unicode="&#xef;" horiz-adv-x="706" d="M-82 1407q0 71 50.5 121.5t121.5 50.5t121.5 -50.5t50.5 -121.5t-50.5 -121.5t-121.5 -50.5t-121.5 50.5t-50.5 121.5zM453 1407q0 71 50.5 121.5t121.5 50.5t121.5 -50.5t50.5 -121.5t-50.5 -121.5t-121.5 -50.5t-121.5 50.5t-50.5 121.5zM30 0v4h164v1016h-164v4h491 v-1020h164v-4h-655z" />
<glyph unicode="&#xf0;" horiz-adv-x="1220" d="M560 1133l200 111q-35 115 -98 164.5t-163 49.5q-84 0 -161.5 -22.5t-139 -74t-79.5 -123.5q53 97 162 97q72 0 123 -51t51 -123t-51 -123t-123 -51q-82 0 -128.5 55.5t-46.5 133.5q0 58 23.5 106t62.5 81t90 55.5t106 33t112 10.5q228 0 398 -140l165 92l2 -5l-162 -91 q129 -111 197.5 -275t68.5 -326q0 -204 -76 -373.5t-218 -271t-322 -101.5q-92 0 -181 32t-161 90t-116 147.5t-44 195.5q0 105 39.5 194t102.5 145.5t140 88t154 31.5q246 0 324 -223v45q0 354 -50 521l-199 -111zM553 -25q62 0 107 31t73 85t45.5 142t24.5 187.5t8 236.5 q-13 35 -30 66t-44.5 64.5t-67.5 53.5t-87 20q-217 0 -217 -445q0 -441 188 -441z" />
<glyph unicode="&#xf1;" horiz-adv-x="1284" d="M775 1257q-56 0 -101 15.5t-74 37.5t-54.5 44.5t-55.5 38t-64 15.5q-39 0 -57.5 -24t-18.5 -63q0 -17 1.5 -30.5t2.5 -18.5l2 -6h-4q-6 21 -6 55q0 103 65.5 160t169.5 57q56 0 101 -15.5t74 -37.5t54.5 -44t55.5 -37.5t64 -15.5q39 0 57.5 24t18.5 63q0 17 -2 30.5 t-4 18.5l-1 6h5q6 -21 6 -55q0 -103 -65.5 -160.5t-169.5 -57.5zM1264 0h-586v4h94v807q0 117 -18 163t-68 46q-53 0 -97.5 -56.5t-66.5 -146.5v-813h94v-4h-585v4h164v1016h-164v4h491v-188q61 215 246 215q166 0 249 -105.5t83 -271.5v-670h164v-4z" />
<glyph unicode="&#xf2;" d="M372 1522l385 -279h-7l-385 279h7zM1073 512q0 -140 -74 -265.5t-193 -199.5t-247 -74t-247 74t-193 199.5t-74 265.5t74 265.5t193 199.5t247 74t247 -74t193 -199.5t74 -265.5zM725 512q0 52 -0.5 87t-1.5 81.5t-3.5 77.5t-6.5 69t-11 63.5t-15.5 53t-21 44.5t-28 31.5 t-35 21t-43.5 6.5q-29 0 -52.5 -10t-40.5 -33t-29 -47.5t-20 -67t-12.5 -77.5t-6.5 -93t-2.5 -98.5t-0.5 -108.5t0.5 -108.5t2.5 -98.5t6.5 -93t12.5 -77.5t20 -67t29 -47.5t40.5 -33t52.5 -10q24 0 43.5 6.5t35 21t28 31.5t21 44.5t15.5 53t11 63.5t6.5 69t3.5 77.5 t1.5 81.5t0.5 87z" />
<glyph unicode="&#xf3;" d="M757 1518l-385 -279h-7l385 279h7zM1073 512q0 -140 -74 -265.5t-193 -199.5t-247 -74t-247 74t-193 199.5t-74 265.5t74 265.5t193 199.5t247 74t247 -74t193 -199.5t74 -265.5zM725 512q0 52 -0.5 87t-1.5 81.5t-3.5 77.5t-6.5 69t-11 63.5t-15.5 53t-21 44.5t-28 31.5 t-35 21t-43.5 6.5q-29 0 -52.5 -10t-40.5 -33t-29 -47.5t-20 -67t-12.5 -77.5t-6.5 -93t-2.5 -98.5t-0.5 -108.5t0.5 -108.5t2.5 -98.5t6.5 -93t12.5 -77.5t20 -67t29 -47.5t40.5 -33t52.5 -10q24 0 43.5 6.5t35 21t28 31.5t21 44.5t15.5 53t11 63.5t6.5 69t3.5 77.5 t1.5 81.5t0.5 87z" />
<glyph unicode="&#xf4;" d="M942 1244l-382 277l-381 -277h-8l389 282l389 -282h-7zM1073 512q0 -140 -74 -265.5t-193 -199.5t-247 -74t-247 74t-193 199.5t-74 265.5t74 265.5t193 199.5t247 74t247 -74t193 -199.5t74 -265.5zM725 512q0 52 -0.5 87t-1.5 81.5t-3.5 77.5t-6.5 69t-11 63.5 t-15.5 53t-21 44.5t-28 31.5t-35 21t-43.5 6.5q-29 0 -52.5 -10t-40.5 -33t-29 -47.5t-20 -67t-12.5 -77.5t-6.5 -93t-2.5 -98.5t-0.5 -108.5t0.5 -108.5t2.5 -98.5t6.5 -93t12.5 -77.5t20 -67t29 -47.5t40.5 -33t52.5 -10q24 0 43.5 6.5t35 21t28 31.5t21 44.5t15.5 53 t11 63.5t6.5 69t3.5 77.5t1.5 81.5t0.5 87z" />
<glyph unicode="&#xf5;" d="M657 1257q-56 0 -101 15.5t-74 37.5t-54.5 44.5t-55.5 38t-64 15.5q-39 0 -57.5 -24t-18.5 -63q0 -17 2 -30.5t4 -18.5l1 -6h-5q-6 21 -6 55q0 103 65.5 160t169.5 57q56 0 101 -15.5t74 -37.5t54.5 -44t55.5 -37.5t64 -15.5q39 0 57.5 24t18.5 63q0 17 -1.5 30.5 t-2.5 18.5l-2 6h4q6 -21 6 -55q0 -103 -65.5 -160.5t-169.5 -57.5zM1073 512q0 -140 -74 -265.5t-193 -199.5t-247 -74t-247 74t-193 199.5t-74 265.5t74 265.5t193 199.5t247 74t247 -74t193 -199.5t74 -265.5zM725 512q0 52 -0.5 87t-1.5 81.5t-3.5 77.5t-6.5 69t-11 63.5 t-15.5 53t-21 44.5t-28 31.5t-35 21t-43.5 6.5q-29 0 -52.5 -10t-40.5 -33t-29 -47.5t-20 -67t-12.5 -77.5t-6.5 -93t-2.5 -98.5t-0.5 -108.5t0.5 -108.5t2.5 -98.5t6.5 -93t12.5 -77.5t20 -67t29 -47.5t40.5 -33t52.5 -10q24 0 43.5 6.5t35 21t28 31.5t21 44.5t15.5 53 t11 63.5t6.5 69t3.5 77.5t1.5 81.5t0.5 87z" />
<glyph unicode="&#xf6;" d="M119 1407q0 71 50.5 121.5t121.5 50.5t121.5 -50.5t50.5 -121.5t-50.5 -121.5t-121.5 -50.5t-121.5 50.5t-50.5 121.5zM653 1407q0 71 50.5 121.5t121.5 50.5t121.5 -50.5t50.5 -121.5t-50.5 -121.5t-121.5 -50.5t-121.5 50.5t-50.5 121.5zM1073 512q0 -140 -74 -265.5 t-193 -199.5t-247 -74t-247 74t-193 199.5t-74 265.5t74 265.5t193 199.5t247 74t247 -74t193 -199.5t74 -265.5zM725 512q0 52 -0.5 87t-1.5 81.5t-3.5 77.5t-6.5 69t-11 63.5t-15.5 53t-21 44.5t-28 31.5t-35 21t-43.5 6.5q-29 0 -52.5 -10t-40.5 -33t-29 -47.5t-20 -67 t-12.5 -77.5t-6.5 -93t-2.5 -98.5t-0.5 -108.5t0.5 -108.5t2.5 -98.5t6.5 -93t12.5 -77.5t20 -67t29 -47.5t40.5 -33t52.5 -10q24 0 43.5 6.5t35 21t28 31.5t21 44.5t15.5 53t11 63.5t6.5 69t3.5 77.5t1.5 81.5t0.5 87z" />
<glyph unicode="&#xf7;" horiz-adv-x="632" d="M148 940q0 70 49.5 119.5t120.5 49.5q70 0 119.5 -49.5t49.5 -119.5q0 -71 -49.5 -120.5t-119.5 -49.5t-120 50t-50 120zM153 940q0 -68 49 -117t116 -49t116 49t49 117t-48.5 116.5t-116.5 48.5t-116.5 -48.5t-48.5 -116.5zM-51 600h735v-4h-735v4zM148 223 q0 70 49.5 119.5t120.5 49.5q70 0 119.5 -49t49.5 -120t-49.5 -120.5t-119.5 -49.5t-120 49.5t-50 120.5zM153 223q0 -68 49 -117t116 -49t116 49t49 117q0 67 -48.5 116t-116.5 49t-116.5 -49t-48.5 -116z" />
<glyph unicode="&#xf8;" d="M1073 512q0 -140 -74 -265.5t-193 -199.5t-247 -74q-106 0 -213 56l-56 -148h-5l57 150q-130 70 -213.5 200.5t-83.5 280.5q0 140 74 265.5t193 199.5t247 74q77 0 163 -33l64 169h6l-66 -170q147 -60 247 -200.5t100 -304.5zM395 512q0 -217 12 -313l282 735 q-38 113 -130 113q-29 0 -52.5 -10t-40.5 -33t-29 -47.5t-20 -67t-12.5 -77.5t-6.5 -93t-2.5 -98.5t-0.5 -108.5zM725 512q0 155 -6 252t-28 163l-283 -739q14 -103 49 -157t102 -54q24 0 43.5 6.5t35 21t28 31.5t21 44.5t15.5 53t11 63.5t6.5 69t3.5 77.5t1.5 81.5t0.5 87z " />
<glyph unicode="&#xf9;" horiz-adv-x="1253" d="M424 1522l385 -279h-7l-385 279h7zM0 1024h492v-811q0 -117 18 -163t68 -46q53 0 97 56.5t66 146.5v813h-94v4h422v-1020h164v-4h-492v188q-61 -215 -245 -215q-166 0 -249 105.5t-83 271.5v670h-164v4z" />
<glyph unicode="&#xfa;" horiz-adv-x="1253" d="M809 1518l-385 -279h-7l385 279h7zM0 1024h492v-811q0 -117 18 -163t68 -46q53 0 97 56.5t66 146.5v813h-94v4h422v-1020h164v-4h-492v188q-61 -215 -245 -215q-166 0 -249 105.5t-83 271.5v670h-164v4z" />
<glyph unicode="&#xfb;" horiz-adv-x="1253" d="M994 1244l-382 277l-381 -277h-8l389 282l389 -282h-7zM0 1024h492v-811q0 -117 18 -163t68 -46q53 0 97 56.5t66 146.5v813h-94v4h422v-1020h164v-4h-492v188q-61 -215 -245 -215q-166 0 -249 105.5t-83 271.5v670h-164v4z" />
<glyph unicode="&#xfc;" horiz-adv-x="1253" d="M171 1407q0 71 50.5 121.5t121.5 50.5t121.5 -50.5t50.5 -121.5t-50.5 -121.5t-121.5 -50.5t-121.5 50.5t-50.5 121.5zM706 1407q0 71 50.5 121.5t121.5 50.5t121.5 -50.5t50.5 -121.5t-50.5 -121.5t-121.5 -50.5t-121.5 50.5t-50.5 121.5zM0 1024h492v-811 q0 -117 18 -163t68 -46q53 0 97 56.5t66 146.5v813h-94v4h422v-1020h164v-4h-492v188q-61 -215 -245 -215q-166 0 -249 105.5t-83 271.5v670h-164v4z" />
<glyph unicode="&#xfd;" horiz-adv-x="1193" d="M867 1518l-385 -279h-7l385 279h7zM285 -502q-50 0 -89.5 14t-63 34.5t-40.5 48.5t-24 49.5t-11 44.5q-4 20 -4 41q0 73 52 124.5t126 51.5q72 0 124.5 -51.5t52.5 -124.5t-52.5 -126t-124.5 -53q-51 0 -93.5 27.5t-66.5 71.5q52 -148 214 -148q111 0 173.5 66.5 t110.5 200.5l65 180l-454 1071h-166v4h662v-4h-131l253 -600l209 600h-165v4h336v-4h-166l-437 -1251q-47 -136 -113 -203.5t-177 -67.5z" />
<glyph unicode="&#xfe;" horiz-adv-x="1208" d="M522 -471h164v-4h-655v4h164v1958h-164v4h491v-655q61 215 246 215q73 0 144.5 -41t127 -111t89.5 -172t34 -215t-34 -215t-89.5 -172t-127 -111t-144.5 -41q-185 0 -246 215v-659zM522 207q22 -90 66.5 -146.5t97.5 -56.5q72 0 100.5 86.5t28.5 308.5v226 q0 222 -28.5 308.5t-100.5 86.5q-53 0 -97.5 -56.5t-66.5 -146.5v-610z" />
<glyph unicode="&#xff;" horiz-adv-x="1193" d="M229 1407q0 71 50.5 121.5t121.5 50.5t121.5 -50.5t50.5 -121.5t-50.5 -121.5t-121.5 -50.5t-121.5 50.5t-50.5 121.5zM764 1407q0 71 50.5 121.5t121.5 50.5t121.5 -50.5t50.5 -121.5t-50.5 -121.5t-121.5 -50.5t-121.5 50.5t-50.5 121.5zM285 -502q-50 0 -89.5 14 t-63 34.5t-40.5 48.5t-24 49.5t-11 44.5q-4 20 -4 41q0 73 52 124.5t126 51.5q72 0 124.5 -51.5t52.5 -124.5t-52.5 -126t-124.5 -53q-51 0 -93.5 27.5t-66.5 71.5q52 -148 214 -148q111 0 173.5 66.5t110.5 200.5l65 180l-454 1071h-166v4h662v-4h-131l253 -600l209 600 h-165v4h336v-4h-166l-437 -1251q-48 -136 -113.5 -203.5t-176.5 -67.5z" />
<glyph unicode="&#x131;" horiz-adv-x="706" d="M31 0v4h164v1016h-164v4h491v-1020h164v-4h-655z" />
<glyph unicode="&#x13f;" horiz-adv-x="1239" d="M1188 0h-1153v4h180v1426h-180v4h704v-4h-180v-1426h70q82 0 153.5 19t123 51.5t94.5 74t71 87.5t50 92.5t33.5 88t18.5 74t9 51.5l2 19h4v-561zM711 725q0 71 51 121.5t123 50.5q71 0 121.5 -50.5t50.5 -121.5q0 -72 -50.5 -123t-121.5 -51q-72 0 -123 51t-51 123z" />
<glyph unicode="&#x140;" horiz-adv-x="614" d="M31 0v4h164v1483h-164v4h491v-1487h164v-4h-655zM572 725q0 71 51 121.5t123 50.5q71 0 122 -51t51 -121q0 -72 -51 -123t-122 -51q-72 0 -123 51t-51 123z" />
<glyph unicode="&#x141;" horiz-adv-x="1239" d="M1184 561h4v-561h-1153v4h180v605l-157 -77l-2 4l159 77v817h-180v4h704v-4h-180v-650l193 94l2 -3l-195 -95v-772h70q82 0 153.5 19t123 51.5t94.5 74t71 87.5t50 92.5t33.5 88t18.5 74t9 51.5z" />
<glyph unicode="&#x142;" horiz-adv-x="706" d="M522 4h164v-4h-655v4h164v605l-137 -66l-2 3l139 67v874h-164v4h491v-718l148 72l2 -3l-150 -73v-765z" />
<glyph unicode="&#x152;" horiz-adv-x="1966" d="M1889 0h-1066q-113 0 -224 30.5t-210 91.5t-174.5 145.5t-119.5 201t-44 248.5t44 248.5t119.5 201t174.5 145.5t210 91.5t224 30.5h993v-519h-5q-1 11 -4.5 29.5t-18.5 72t-35.5 102t-59.5 108t-86.5 102t-120 72t-156.5 29.5h-69v-693h24q53 0 98.5 18.5t75 48.5 t52.5 66t35.5 72t20.5 66t11 48l2 19h4v-680h-4q-1 7 -2.5 19t-10 47.5t-21 67t-36 70.5t-52.5 67.5t-74.5 47.5t-98.5 19h-24v-729h69q82 0 153.5 19t123 51.5t94.5 74t71 87.5t50 92.5t33.5 88t18.5 74t9 51.5l2 19h4v-561zM391 717q0 -102 4.5 -180t16.5 -155 t32.5 -132.5t53 -104t77.5 -78.5t107 -46.5t141 -16.5h93v1426h-93q-79 0 -141 -16.5t-107 -46.5t-77.5 -78.5t-53 -104t-32.5 -132.5t-16.5 -155t-4.5 -180z" />
<glyph unicode="&#x153;" horiz-adv-x="1716" d="M1075 514v-57q0 -70 1.5 -115t6 -97.5t13.5 -85t25.5 -65t40 -50t57.5 -28.5t79 -11q141 0 235 93t132 262h4q-87 -387 -450 -387q-181 0 -326 143q-71 -67 -158 -105t-176 -38q-128 0 -247 74t-193 199.5t-74 265.5t74 265.5t193 199.5t247 74q89 0 176 -38t158 -105 q146 143 326 143q98 0 185.5 -43t150 -116t99 -171.5t36.5 -206.5h-615zM725 512q0 52 -0.5 87t-1.5 81.5t-3.5 77.5t-6.5 69t-11 63.5t-15.5 53t-21 44.5t-28 31.5t-35 21t-43.5 6.5q-29 0 -52.5 -10t-40.5 -33t-29 -47.5t-20 -67t-12.5 -77.5t-6.5 -93t-2.5 -98.5 t-0.5 -108.5t0.5 -108.5t2.5 -98.5t6.5 -93t12.5 -77.5t20 -67t29 -47.5t40.5 -33t52.5 -10q24 0 43.5 6.5t35 21t28 31.5t21 44.5t15.5 53t11 63.5t6.5 69t3.5 77.5t1.5 81.5t0.5 87zM1219 1047q-33 0 -57 -12t-39.5 -38t-25.5 -56.5t-14.5 -80t-6 -94.5t-1.5 -113v-135 h266q0 121 -1.5 199.5t-7 141.5t-13.5 96.5t-22.5 56t-32 29t-45.5 6.5z" />
<glyph unicode="&#x160;" horiz-adv-x="1128" d="M940 1847l-389 -281l-389 281h8l381 -276l382 276h7zM524 -27q82 0 145 19.5t99 48t58.5 66.5t30 69.5t7.5 61.5q0 67 -27.5 121.5t-74 92t-106.5 69t-126.5 59t-132.5 55.5t-126 64.5t-106.5 80.5t-74 109t-27.5 145q0 191 124 310.5t343 119.5q171 0 293 -76.5 t153 -175.5q11 -35 11 -61q0 -78 -46 -133t-128 -55q-72 0 -123 51t-51 123t51 123t123 51q59 0 105.5 -36.5t61.5 -92.5q-6 47 -41 95.5t-91 89.5t-140 67t-178 26q-56 0 -99.5 -16t-69 -40t-42 -56t-22.5 -60t-6 -55q0 -59 26.5 -107t71.5 -81t103 -62t122.5 -55.5 t129 -56t122.5 -69.5t103 -89.5t71.5 -122.5t26.5 -162q0 -120 -72.5 -226t-198.5 -169.5t-272 -63.5q-114 0 -214 44t-158.5 104.5t-79.5 124.5q-11 40 -11 61q0 78 46.5 133.5t128.5 55.5q72 0 123 -51.5t51 -123.5t-51 -123t-123 -51q-59 0 -105.5 36.5t-61.5 92.5 q6 -47 42.5 -98.5t93.5 -96.5t142 -74.5t177 -29.5z" />
<glyph unicode="&#x161;" horiz-adv-x="841" d="M819 1519l-389 -282l-389 282h8l381 -277l382 277h7zM468 -31q-53 0 -105 21t-99.5 42t-88.5 21q-34 0 -61.5 -27t-34.5 -77h-4v520h4q2 -70 32.5 -154.5t80 -161.5t123.5 -128.5t153 -51.5q68 0 107.5 41t39.5 111q0 50 -30.5 91t-79 70.5t-107 59t-117 64t-107 76.5 t-79 106t-30.5 143q0 120 89.5 218t221.5 98q54 0 148.5 -38t131.5 -38q47 0 47 76h5v-410h-5q-2 29 -12.5 68.5t-28.5 86t-46.5 90.5t-62.5 80.5t-80.5 58.5t-96.5 22q-68 0 -114 -45t-46 -109q0 -45 32 -82t83 -65t112.5 -56t123 -63t112.5 -77.5t83 -107.5t32 -145 q0 -140 -92 -234t-234 -94z" />
<glyph unicode="&#x178;" horiz-adv-x="1415" d="M345 1736q0 71 50.5 121.5t121.5 50.5t121.5 -50.5t50.5 -121.5t-50.5 -121.5t-121.5 -50.5t-121.5 50.5t-50.5 121.5zM880 1736q0 71 50.5 121.5t121.5 50.5t121.5 -50.5t50.5 -121.5t-50.5 -121.5t-121.5 -50.5t-121.5 50.5t-50.5 121.5zM1399 1430h-160l-319 -746 v-680h180v-4h-705v4h180v623l-385 803h-176v4h758v-4h-205l351 -736l315 736h-209v4h375v-4z" />
<glyph unicode="&#x17d;" horiz-adv-x="1282" d="M1038 1848l-389 -281l-389 281h8l381 -276l382 276h7zM1204 0h-1128l706 1430h-104q-129 0 -229.5 -39.5t-158.5 -97.5t-97 -136.5t-53.5 -143.5t-19.5 -132h-5v553h1046l-706 -1430h129q121 0 222 30.5t186 96t139 180t68 269.5h5v-580z" />
<glyph unicode="&#x17e;" horiz-adv-x="1044" d="M949 1519l-389 -282l-389 282h8l381 -277l382 277h7zM963 1024l-531 -1020h39q64 0 125.5 17t121 57.5t104.5 100t73.5 151.5t30.5 205h4v-535h-858l528 1020h-33q-57 0 -114 -14.5t-114 -48.5t-101 -83.5t-72.5 -126t-30.5 -169.5h-4v446h832z" />
<glyph unicode="&#x192;" horiz-adv-x="1367" d="M1363 1305q5 -35 3 -62q-10 -78 -63 -133t-135 -55q-72 0 -116.5 51t-35.5 123q8 72 65.5 123t129.5 51q57 0 100 -36.5t51 -92.5q-3 81 -55 127.5t-131 46.5q-121 0 -173 -57t-68 -187l-45 -366h164l-1 -4h-164l-89 -728l-22 -178q-12 -97 -59.5 -176.5t-117.5 -130 t-154 -77.5t-172 -27q-77 0 -131.5 14t-92.5 50t-47 95q-6 38 -3 62q10 78 63 133t135 55q72 0 116 -51t36 -123q-9 -72 -66 -123t-129 -51q-57 0 -100 36.5t-52 92.5q3 -81 55.5 -127.5t131.5 -46.5q109 0 167.5 59.5t73.5 184.5l40 329l89 728h-164l1 4h164l27 215 q12 97 59.5 176.5t117.5 130t153.5 77.5t172.5 27q118 0 188 -36.5t83 -122.5z" />
<glyph unicode="&#x2c6;" horiz-adv-x="880" d="M822 1244l-382 277l-381 -277h-8l389 282l389 -282h-7z" />
<glyph unicode="&#x2c7;" horiz-adv-x="880" d="M829 1519l-389 -282l-389 282h8l381 -277l382 277h7z" />
<glyph unicode="&#x2d8;" horiz-adv-x="441" d="M390 1434q0 -71 -49.5 -120.5t-119.5 -49.5q-71 0 -120.5 50t-49.5 120h4q0 -68 49.5 -117t116.5 -49t116 49t49 117h4z" />
<glyph unicode="&#x2d9;" horiz-adv-x="397" d="M26 1409q0 71 51 121.5t123 50.5q70 0 121 -50.5t51 -121.5q0 -72 -50.5 -123t-121.5 -51q-72 0 -123 51t-51 123z" />
<glyph unicode="&#x2da;" horiz-adv-x="440" d="M51 1407q0 70 49.5 119.5t120.5 49.5t120 -49t49 -120t-49.5 -120.5t-119.5 -49.5q-71 0 -120.5 49.5t-49.5 120.5zM55 1407q0 -67 49.5 -116.5t116.5 -49.5t116 49t49 117q0 67 -49 116t-116 49q-68 0 -117 -49t-49 -116z" />
<glyph unicode="&#x2db;" horiz-adv-x="581" d="M230 0q-45 -6 -77 -29t-32 -64q0 -35 27.5 -63.5t72.5 -28.5q27 0 49 9t33.5 22t17.5 22t7 14l167 -106q-23 -70 -73.5 -114t-127.5 -44q-94 0 -150.5 71.5t-56.5 159.5q0 135 143 155v-4z" />
<glyph unicode="&#x2dc;" horiz-adv-x="765" d="M480 1257q-56 0 -101 15.5t-74 37.5t-54.5 44.5t-55.5 38t-64 15.5q-39 0 -57.5 -24t-18.5 -63q0 -17 1.5 -30.5t3.5 -18.5l1 -6h-4q-6 21 -6 55q0 103 65.5 160t169.5 57q56 0 101 -15.5t74 -37.5t54.5 -44t55.5 -37.5t64 -15.5q39 0 57.5 24t18.5 63q0 17 -1.5 30.5 t-3.5 18.5l-1 6h4q6 -21 6 -55q0 -103 -65.5 -160.5t-169.5 -57.5z" />
<glyph unicode="&#x2dd;" horiz-adv-x="901" d="M479 1519l-385 -279h-7l385 279h7zM814 1519l-385 -279h-7l385 279h7z" />
<glyph unicode="&#x300;" horiz-adv-x="0" d="M-435 1522l385 -279h-7l-385 279h7z" />
<glyph unicode="&#x301;" horiz-adv-x="0" d="M-50 1519l-385 -279h-7l385 279h7z" />
<glyph unicode="&#x302;" horiz-adv-x="0" d="M-58 1244l-382 277l-381 -277h-8l389 282l389 -282h-7z" />
<glyph unicode="&#x303;" horiz-adv-x="0" d="M-286 1257q-56 0 -101 15.5t-74 37.5t-54.5 44.5t-55.5 38t-64 15.5q-39 0 -57.5 -24t-18.5 -63q0 -17 1.5 -30.5t3.5 -18.5l1 -6h-4q-6 21 -6 55q0 103 65.5 160t169.5 57q56 0 101 -15.5t74 -37.5t54.5 -44t55.5 -37.5t64 -15.5q39 0 57.5 24t18.5 63q0 17 -1.5 30.5 t-3.5 18.5l-1 6h4q6 -21 6 -55q0 -103 -65.5 -160.5t-169.5 -57.5z" />
<glyph unicode="&#x304;" horiz-adv-x="0" d="M-720 1324h633v-4h-633v4z" />
<glyph unicode="&#x306;" horiz-adv-x="0" d="M-51 1434q0 -71 -49.5 -120.5t-119.5 -49.5t-120 50t-50 120h4q0 -68 49 -117t117 -49q67 0 116 49t49 117h4z" />
<glyph unicode="&#x307;" horiz-adv-x="0" d="M-372 1409q0 71 51 121.5t123 50.5q70 0 121 -50.5t51 -121.5q0 -72 -50.5 -123t-121.5 -51q-72 0 -123 51t-51 123z" />
<glyph unicode="&#x308;" horiz-adv-x="0" d="M-930 1407q0 71 50.5 121.5t121.5 50.5t121.5 -50.5t50.5 -121.5t-50.5 -121.5t-121.5 -50.5t-121.5 50.5t-50.5 121.5zM-395 1407q0 71 50.5 121.5t121.5 50.5t121.5 -50.5t50.5 -121.5t-50.5 -121.5t-121.5 -50.5t-121.5 50.5t-50.5 121.5z" />
<glyph unicode="&#x30a;" horiz-adv-x="0" d="M-389 1407q0 70 49.5 119.5t120.5 49.5t120 -49t49 -120t-49.5 -120.5t-119.5 -49.5q-71 0 -120.5 49.5t-49.5 120.5zM-385 1407q0 -67 49.5 -116.5t116.5 -49.5t116 49t49 117q0 67 -49 116t-116 49q-68 0 -117 -49t-49 -116z" />
<glyph unicode="&#x30b;" horiz-adv-x="0" d="M-422 1519l-385 -279h-7l385 279h7zM-87 1519l-385 -279h-7l385 279h7z" />
<glyph unicode="&#x30c;" horiz-adv-x="0" d="M-51 1519l-389 -282l-389 282h8l381 -277l382 277h7z" />
<glyph unicode="&#x327;" horiz-adv-x="0" d="M-438 -278q1 -50 22 -85t69 -35q35 0 63.5 28.5t28.5 75.5q0 20 -5.5 37.5t-13.5 28t-16.5 18.5t-13.5 11l-6 3l160 196h7l-36 -44q57 -28 93 -76t36 -112q0 -97 -68.5 -152t-156.5 -55q-163 0 -167 161h4z" />
<glyph unicode="&#x328;" horiz-adv-x="0" d="M-351 0q-46 -6 -78 -29t-32 -64q0 -35 28 -63.5t73 -28.5q27 0 49 9t33.5 22t17 22t6.5 14l167 -106q-23 -70 -73.5 -114t-127.5 -44q-94 0 -150.5 71.5t-56.5 159.5q0 64 35.5 104.5t108.5 50.5v-4z" />
<glyph unicode="&#x3bc;" horiz-adv-x="1253" d="M0 1020v4h586v-4h-94v-832q0 -102 19 -144t67 -42q49 0 94 58t69 147v813h-94v4h422v-1020h164v-4h-492v188q-61 -215 -245 -215h-4v-444h163v-4h-655v4h164v1491h-164z" />
<glyph unicode="&#x2000;" horiz-adv-x="954" />
<glyph unicode="&#x2001;" horiz-adv-x="1908" />
<glyph unicode="&#x2002;" horiz-adv-x="954" />
<glyph unicode="&#x2003;" horiz-adv-x="1908" />
<glyph unicode="&#x2004;" horiz-adv-x="636" />
<glyph unicode="&#x2005;" horiz-adv-x="477" />
<glyph unicode="&#x2006;" horiz-adv-x="318" />
<glyph unicode="&#x2007;" horiz-adv-x="318" />
<glyph unicode="&#x2008;" horiz-adv-x="238" />
<glyph unicode="&#x2009;" horiz-adv-x="381" />
<glyph unicode="&#x200a;" horiz-adv-x="106" />
<glyph unicode="&#x2010;" horiz-adv-x="704" d="M86 600h530v-4h-530v4z" />
<glyph unicode="&#x2011;" horiz-adv-x="704" d="M86 600h530v-4h-530v4z" />
<glyph unicode="&#x2012;" horiz-adv-x="704" d="M86 600h530v-4h-530v4z" />
<glyph unicode="&#x2013;" horiz-adv-x="704" d="M86 600h530v-4h-530v4z" />
<glyph unicode="&#x2014;" horiz-adv-x="1216" d="M86 600h1042v-4h-1042v4z" />
<glyph unicode="&#x2018;" horiz-adv-x="399" d="M272 1460q-119 -21 -175.5 -81.5t-65.5 -166.5q12 55 60 92t108 37q72 0 123 -51t51 -123t-51 -123t-123 -51q-82 0 -128 55t-46 134q0 243 247 282v-4z" />
<glyph unicode="&#x2019;" horiz-adv-x="399" d="M125 997q119 21 176 82t66 166q-12 -55 -60 -92t-108 -37q-72 0 -123 51t-51 123t51 123t123 51q82 0 128 -55t46 -133q0 -243 -248 -283v4z" />
<glyph unicode="&#x201a;" horiz-adv-x="450" d="M152 -137q119 21 175.5 81.5t65.5 166.5q-12 -55 -60 -92t-108 -37q-72 0 -123 51t-51 123t51 123t123 51q82 0 128 -55t46 -134q0 -243 -247 -282v4z" />
<glyph unicode="&#x201c;" horiz-adv-x="813" d="M272 1460q-119 -21 -175.5 -81.5t-65.5 -166.5q12 55 60 92t108 37q72 0 123 -51t51 -123t-51 -123t-123 -51q-82 0 -128 55t-46 134q0 243 247 282v-4zM686 1460q-119 -21 -176 -82t-66 -166q12 55 60 92t108 37q72 0 123 -51t51 -123t-51 -123t-123 -51q-82 0 -128 55 t-46 134q0 242 248 282v-4z" />
<glyph unicode="&#x201d;" horiz-adv-x="813" d="M125 997q119 21 176 82t66 166q-12 -55 -60 -92t-108 -37q-72 0 -123 51t-51 123t51 123t123 51q82 0 128 -55t46 -133q0 -243 -248 -283v4zM539 997q119 21 175.5 81.5t65.5 166.5q-12 -55 -60 -92t-108 -37q-72 0 -123 51t-51 123t51 123t123 51q82 0 128 -55t46 -133 q0 -244 -247 -283v4z" />
<glyph unicode="&#x201e;" horiz-adv-x="874" d="M152 -137q119 21 175.5 81.5t65.5 166.5q-12 -55 -60 -92t-108 -37q-72 0 -123 51t-51 123t51 123t123 51q82 0 128 -55t46 -134q0 -243 -247 -282v4zM575 -137q119 21 176 82t66 166q-12 -55 -60 -92t-108 -37q-72 0 -123 51t-51 123t51 123t123 51q82 0 128 -55 t46 -134q0 -242 -248 -282v4z" />
<glyph unicode="&#x2020;" horiz-adv-x="1142" d="M423 -112q0 58 43 102t102 45v847h-197q-1 -59 -45 -103t-102 -44q-60 0 -104 44.5t-44 104.5q0 59 44 102.5t104 43.5q58 0 102 -43t45 -101h197v283q-59 1 -102 45.5t-43 103.5t44 102.5t104 43.5q59 0 103 -44t44 -102q0 -60 -43.5 -104t-101.5 -45v-283h198 q1 58 45 101t104 43q58 0 102 -44t44 -102q0 -60 -43.5 -104.5t-102.5 -44.5q-60 0 -104 44t-45 103h-198v-847q58 -1 101.5 -45t43.5 -102q0 -60 -44 -104t-103 -44q-60 0 -104 44t-44 104z" />
<glyph unicode="&#x2021;" horiz-adv-x="1142" d="M76 479q0 59 44 103t104 44q58 0 102 -43.5t45 -101.5h197v401h-197q-1 -59 -45 -103t-102 -44q-60 0 -104 44.5t-44 104.5q0 59 44 102.5t104 43.5q58 0 102 -43t45 -101h197v283q-59 1 -102 45.5t-43 103.5t44 102.5t104 43.5q59 0 103 -44t44 -102q0 -60 -43.5 -104 t-101.5 -45v-283h198q1 58 45 101t104 43q58 0 102 -44t44 -102q0 -60 -43.5 -104.5t-102.5 -44.5q-60 0 -104 44t-45 103h-198v-401h198q1 58 45 101.5t104 43.5q58 0 102 -44t44 -103q0 -60 -43.5 -104t-102.5 -44q-60 0 -104 43.5t-45 102.5h-198v-442q58 -1 101.5 -45 t43.5 -102q0 -60 -44 -104t-103 -44q-60 0 -104 44t-44 104q0 58 43 102t102 45v442h-197q-1 -59 -45 -102.5t-102 -43.5q-60 0 -104 44t-44 104z" />
<glyph unicode="&#x2022;" horiz-adv-x="706" d="M186 720q0 74 49.5 124t122.5 50q74 0 124 -50t50 -124q0 -73 -50 -122.5t-124 -49.5t-123 49t-49 123z" />
<glyph unicode="&#x2026;" horiz-adv-x="1904" d="M143 156q0 71 51 121.5t123 50.5q71 0 121.5 -51t50.5 -121q0 -72 -50.5 -123t-121.5 -51q-72 0 -123 51t-51 123zM778 156q0 71 51 121.5t123 50.5q46 0 82 -19t54.5 -49.5t27.5 -67.5t0 -74t-27.5 -67.5t-54.5 -49.5t-82 -19q-72 0 -123 51t-51 123zM1413 156 q0 71 51 121.5t123 50.5q71 0 121.5 -51t50.5 -121q0 -72 -50.5 -123t-121.5 -51q-72 0 -123 51t-51 123z" />
<glyph unicode="&#x202f;" horiz-adv-x="381" />
<glyph unicode="&#x2030;" horiz-adv-x="2471" d="M743 1026q0 -115 -53 -217.5t-132.5 -160.5t-160.5 -58t-160.5 58t-132.5 160.5t-53 217.5t53 217.5t132.5 160.5t160.5 58t160.5 -58t132.5 -160.5t53 -217.5zM541 1026q0 168 -15 262t-45 132t-84 38t-84.5 -38t-45.5 -132t-15 -262q0 -169 15 -263t45.5 -131.5 t84.5 -37.5t84 37.5t45 131.5t15 263zM530 0l658 1434h6l-659 -1434h-5zM1671 408q0 -87 -31.5 -169t-81 -140t-111.5 -93t-122 -35t-122 35t-111.5 93t-81 140t-31.5 169q0 115 53 217.5t132.5 160.5t160.5 58t160.5 -58t132.5 -160.5t53 -217.5zM2421 408 q0 -87 -31.5 -169t-81 -140t-111.5 -93t-122 -35t-122 35t-111.5 93t-81 140t-31.5 169q0 115 53 217.5t132.5 160.5t160.5 58t160.5 -58t132.5 -160.5t53 -217.5zM1468 408q0 169 -14.5 262.5t-44.5 131.5t-84 38t-84.5 -38t-45.5 -132t-15 -262q0 -169 15 -263t45.5 -132 t84.5 -38t84 38t44.5 132t14.5 263zM2218 408q0 169 -14.5 262.5t-44.5 131.5t-84 38t-84.5 -38t-46 -132t-15.5 -262q0 -169 15.5 -263.5t46 -132t84.5 -37.5t84 38t44.5 132t14.5 263z" />
<glyph unicode="&#x2039;" horiz-adv-x="468" d="M51 639l367 307v-4l-363 -305l363 -305v-4l-367 307v4z" />
<glyph unicode="&#x203a;" horiz-adv-x="468" d="M418 634l-367 -307v4l363 305l-363 305v4l367 -307v-4z" />
<glyph unicode="&#x205f;" horiz-adv-x="477" />
<glyph unicode="&#x20ac;" horiz-adv-x="1366" d="M831 -25q178 0 310.5 125.5t169.5 350.5h4q-14 -96 -53.5 -182t-100 -153t-146 -106t-184.5 -39q-240 0 -420 174.5t-218 446.5h-142v4h142q-9 70 -9 121t9 121h-142v4h142q38 272 218 446t420 174q99 0 181.5 -38.5t139 -106t92.5 -152t50 -182.5h-4q-38 227 -160.5 351 t-298.5 124q-61 0 -107 -29.5t-83.5 -98t-60 -191t-27.5 -297.5h461v-4h-461q-2 -76 -2 -121t2 -121h461v-4h-461q5 -176 27.5 -298.5t60 -191t83.5 -98t107 -29.5z" />
<glyph unicode="&#x2122;" horiz-adv-x="1597" d="M649 1434v-295h-4q0 50 -21 113.5t-66 118t-100 59.5v-580h72v-4h-336v4h73v580q-41 -4 -78 -37t-60 -78.5t-36 -92.5t-13 -83h-4v295h573zM1521 846h-338v4h73v553l-214 -563l-269 543v-533h73v-4h-151v4h73v580h-75v4h234l191 -381l145 381h258v-4h-74v-580h74v-4z" />
<glyph unicode="&#x2212;" horiz-adv-x="704" d="M86 600h530v-4h-530v4z" />
<glyph unicode="&#x2260;" horiz-adv-x="946" d="M86 764h441l109 282h5l-109 -282h326v-4h-328l-124 -324h452v-4h-454l-112 -293h-5l112 293h-313v4h314l125 324h-439v4z" />
<glyph unicode="&#x2264;" horiz-adv-x="847" d="M87 596l674 307v-4l-670 -305l670 -305v-4l-674 307v4zM87 186h674v-4h-674v4z" />
<glyph unicode="&#x2265;" horiz-adv-x="847" d="M761 592l-674 -307v4l670 305l-670 305v4l674 -307v-4zM761 182h-674v4h674v-4z" />
<glyph unicode="&#x25fc;" horiz-adv-x="1024" d="M0 1024h1024v-1024h-1024v1024z" />
<glyph unicode="&#xf8ff;" horiz-adv-x="1669" d="M401 1491h776v-249h-513v-392q84 -30 199.5 -92t203 -112t201 -89.5t212.5 -39.5q24 0 48 2.5t36 4.5l13 3q-2 -3 -5.5 -7.5t-19.5 -15.5t-37 -20t-58 -16t-82 -7q-155 0 -333.5 65.5t-377.5 168.5v-695h-263v803q-50 20 -107 20q-71 0 -116.5 -29.5t-45.5 -87.5 q0 -40 21.5 -73t55.5 -45q-55 2 -86 37t-31 94q0 83 69 134t193 51q30 0 47 -3v590z" />
<glyph horiz-adv-x="1247" d="M756 -27q67 0 127.5 42.5t105 109t81.5 154t59.5 170t37.5 165.5h4v-661h-4q-3 61 -32 90t-72 29q-35 0 -70 -16t-61.5 -35.5t-73.5 -35.5t-102 -16q-132 0 -259.5 58t-226 156t-159 239t-60.5 297q0 134 49 266.5t135 239t214 173t274 66.5q55 0 104.5 -16t79.5 -35 t67.5 -35t72.5 -16q43 0 72 29t32 90h4v-625h-4q-14 80 -39 161t-64 162t-86 142.5t-109.5 100t-129.5 38.5q-305 0 -305 -743q0 -169 19.5 -300.5t51.5 -213.5t76.5 -135t91 -74t99.5 -21z" />
<glyph horiz-adv-x="1247" d="M469 -305q1 -50 22 -85.5t69 -35.5q35 0 63.5 28.5t28.5 75.5q0 32 -14 57t-28 33l-13 9l158 192q-132 0 -259.5 58t-225.5 156t-158.5 239t-60.5 297q0 134 49 266.5t135 239t214 173t274 66.5q55 0 104.5 -16t79.5 -35t67.5 -35t72.5 -16q43 0 72 29t32 90h4v-625h-4 q-14 80 -39 161t-64 162t-86 142.5t-109.5 100t-129.5 38.5q-305 0 -305 -743q0 -169 19.5 -300.5t51.5 -213.5t76.5 -135t91 -74t99.5 -21q67 0 127.5 42.5t105 109t81.5 154t59.5 170t37.5 165.5h4v-661h-4q-3 61 -32 90t-72 29q-34 0 -69 -16t-61 -35t-72 -35t-100 -17 l-33 -41q57 -28 93 -76t36 -112q0 -97 -68.5 -152t-156.5 -55q-77 0 -121 39.5t-46 122.5h4z" />
<glyph horiz-adv-x="1464" d="M756 -31q-132 0 -259.5 58t-226 156t-159 239t-60.5 297q0 134 49 266.5t135 239t214 173t274 66.5q70 0 139.5 -25.5t128 -51t101.5 -25.5t72 29t32 90h4v-625h-4q-17 98 -60.5 202.5t-104.5 195t-143 148.5t-165 58q-305 0 -305 -743q0 -169 19.5 -300.5t51.5 -213.5 t76.5 -135t91 -74t99.5 -21q235 0 235 295v365h-180v4h705v-4h-181v-656h-6q-4 45 -46 88.5t-105 43.5q-44 0 -81 -14.5t-66.5 -35t-63.5 -41t-88 -35t-123 -14.5z" />
<glyph d="M190 72q-42 0 -71.5 -29.5t-32.5 -89.5h-4v661h4q15 -83 40 -165.5t67.5 -170t94.5 -154t126 -109t157 -42.5q70 0 124.5 16t87 41.5t53.5 61.5t28.5 71t7.5 75q0 67 -27.5 121.5t-73.5 92t-106 69t-126.5 59t-133 55.5t-126.5 64.5t-106 80.5t-73.5 109t-27.5 145 q0 187 120.5 308.5t327.5 121.5q61 0 117.5 -20.5t104 -41t87.5 -20.5q92 0 97 99h4v-572h-4q-14 80 -37 156t-59.5 148.5t-80.5 126.5t-103.5 87t-125.5 33q-49 0 -88 -14t-63.5 -36.5t-40.5 -53t-22.5 -61t-6.5 -62.5q0 -59 26.5 -107t71.5 -81t103 -62t122.5 -55.5 t129 -56t122.5 -69.5t103 -89.5t71.5 -122.5t26.5 -162q0 -199 -145.5 -330t-358.5 -131q-58 0 -115 16.5t-95 36t-84.5 36t-86.5 16.5z" />
<glyph d="M948 1847l-389 -281l-389 281h8l381 -276l382 276h7zM190 72q-42 0 -71.5 -29.5t-32.5 -89.5h-4v661h4q15 -83 40 -165.5t67.5 -170t94.5 -154t126 -109t157 -42.5q70 0 124.5 16t87 41.5t53.5 61.5t28.5 71t7.5 75q0 67 -27.5 121.5t-73.5 92t-106 69t-126.5 59 t-133 55.5t-126.5 64.5t-106 80.5t-73.5 109t-27.5 145q0 187 120.5 308.5t327.5 121.5q61 0 117.5 -20.5t104 -41t87.5 -20.5q92 0 97 99h4v-572h-4q-14 80 -37 156t-59.5 148.5t-80.5 126.5t-103.5 87t-125.5 33q-49 0 -88 -14t-63.5 -36.5t-40.5 -53t-22.5 -61 t-6.5 -62.5q0 -59 26.5 -107t71.5 -81t103 -62t122.5 -55.5t129 -56t122.5 -69.5t103 -89.5t71.5 -122.5t26.5 -162q0 -199 -145.5 -330t-358.5 -131q-58 0 -115 16.5t-95 36t-84.5 36t-86.5 16.5z" />
<glyph horiz-adv-x="1667" d="M993 670q-160 0 -236.5 -61t-76.5 -206q0 -101 56.5 -163.5t144.5 -71.5q-56 15 -92.5 62t-36.5 106q0 72 51 123t123 51t123 -51t51 -123q0 -82 -55 -128t-134 -46q-119 0 -206 91t-87 234q0 82 23.5 154t70.5 132t129 95t189 35q21 0 74 -1t82 -1q94 0 164 18.5 t106.5 44t58.5 60t27.5 58.5t5.5 48q0 236 -237 249q55 -12 92 -60.5t37 -108.5q0 -72 -51 -123t-123 -51t-123 51t-51 123q0 82 55 128t133 46q164 0 250 -95.5t86 -258.5q0 -75 -22.5 -141.5t-66.5 -119.5t-115.5 -85.5t-162.5 -34.5q113 -102 113 -270q0 -90 -34.5 -163 t-91 -120t-132.5 -78.5t-155 -45t-163 -13.5q-62 0 -120.5 3.5t-134.5 15t-140.5 30.5t-129 53t-109.5 79t-73 112t-28 149q0 67 18.5 125t48 100.5t74 79t87 60.5t96.5 45t94.5 32.5t87.5 22.5q-45 11 -79 21.5t-78.5 33.5t-73 51.5t-48.5 74.5t-20 104q0 77 33.5 138 t92 98.5t133 57t159.5 19.5q68 0 125.5 -13.5t103.5 -41t72.5 -75t26.5 -109.5q0 -96 -60 -160t-151 -64t-147 46t-56 131q0 64 51 108.5t123 44.5q22 0 42.5 -5t29.5 -10l10 -5q-4 -2 -11 -5t-25 -15.5t-31.5 -27.5t-24.5 -40t-11 -54q0 -57 24 -94t75 -37q59 0 108 49.5 t49 139.5q0 71 -38.5 120.5t-94.5 70t-123 20.5q-60 0 -107 -27.5t-73 -71t-39.5 -90.5t-13.5 -94q0 -135 56.5 -211t154.5 -76v-4q-79 0 -138.5 -34.5t-94.5 -95t-52.5 -135t-17.5 -161.5q0 -74 12 -138t42 -123.5t75.5 -101.5t116.5 -67t162 -25q105 0 197.5 22.5t169 68 t121 124t44.5 181.5q0 50 -16.5 94.5t-39.5 74t-54 54t-53 36.5t-44 21q-68 11 -158 11z" />
</font>
</defs>
</svg>
